<svg viewBox="0 0 54 60" fill="none" xmlns="http://www.w3.org/2000/svg">
<g clip-path="url(#clip0_195_5166)">
<path d="M5.96851 38.7251C7.65134 41.7912 10.1265 44.3478 13.1349 46.1272C16.1433 47.9067 19.5742 48.8435 23.0683 48.8396C24.3909 48.8406 25.7104 48.7105 27.0075 48.4512C24.2436 47.8798 21.6367 46.7142 19.367 45.0349C17.0973 43.3556 15.2189 41.2027 13.8618 38.7251" stroke="black" stroke-miterlimit="10"/>
<path d="M13.5336 20.5129C14.8515 17.8895 16.7434 15.5975 19.0685 13.8075C21.3936 12.0175 24.092 10.7756 26.9627 10.1743C25.6673 9.90258 24.347 9.76738 23.0235 9.77092C19.4174 9.77717 15.8836 10.7844 12.8149 12.6808C9.74613 14.5771 7.2626 17.2883 5.64026 20.5129" stroke="black" stroke-miterlimit="10"/>
<path d="M40.1531 38.7251C38.7928 41.2031 36.9117 43.356 34.6395 45.0352C32.3674 46.7144 29.7584 47.8799 26.9926 48.4512C28.2947 48.7098 29.6191 48.8399 30.9467 48.8396C34.4405 48.8419 37.8707 47.9044 40.8788 46.1251C43.8869 44.3458 46.3624 41.7901 48.0464 38.7251" stroke="black" stroke-miterlimit="10"/>
<path d="M48.3598 20.5129C46.7352 17.2837 44.247 14.5696 41.1725 12.673C38.098 10.7763 34.5579 9.77165 30.9467 9.77092C29.6183 9.76818 28.2931 9.90337 26.9926 10.1743C29.8633 10.7756 32.5617 12.0175 34.8868 13.8075C37.2118 15.5975 39.1038 17.8895 40.4217 20.5129" stroke="black" stroke-miterlimit="10"/>
<path d="M40.4664 20.5129C39.1485 17.8895 37.2566 15.5975 34.9315 13.8075C32.6064 12.0175 29.9081 10.7756 27.0373 10.1743C24.1665 10.7756 21.4682 12.0175 19.1431 13.8075C16.818 15.5975 14.9261 17.8895 13.6082 20.5129" stroke="black" stroke-miterlimit="10"/>
<path d="M13.8469 38.7251C15.204 41.2027 17.0824 43.3556 19.3521 45.0349C21.6218 46.7142 24.2287 47.8798 26.9925 48.4512C29.7583 47.8799 32.3674 46.7144 34.6395 45.0352C36.9117 43.356 38.7928 41.2031 40.1531 38.7251" stroke="black" stroke-miterlimit="10"/>
<path d="M5.61039 33.4512H4.22271V30.5378H1.38768V33.4512H0V26.5189H1.38768V29.1633H4.22271V26.5189H5.61039V33.4512Z" fill="black"/>
<path d="M13.832 33.4512H12.3398L11.7878 31.9572H9.23623L8.68414 33.4512H7.19202L10.3106 26.6384C10.3279 26.6019 10.3554 26.5711 10.3898 26.5499C10.4243 26.5287 10.4641 26.5179 10.5045 26.5189H10.6687C10.7133 26.516 10.7576 26.5275 10.7952 26.5517C10.8328 26.5759 10.8617 26.6115 10.8776 26.6534L13.832 33.4512ZM11.4446 30.9114L11.0865 30.1345L10.4448 28.9094L9.83308 30.1942L9.48989 30.9114H11.4446Z" fill="black"/>
<path d="M47.0914 33.4512H45.5993L45.0621 31.9572H42.5255L41.9883 33.4512H40.4962L43.6297 26.6384C43.6444 26.6031 43.6693 26.5728 43.7011 26.5515C43.733 26.5303 43.7704 26.5189 43.8087 26.5189H43.9878C44.0304 26.5169 44.0725 26.5289 44.1075 26.5532C44.1426 26.5775 44.1687 26.6127 44.1818 26.6534L47.0914 33.4512ZM44.7637 30.9114L44.4056 30.1345L43.8237 28.9094L43.2119 30.1942L42.8687 30.9114H44.7637Z" fill="black"/>
<path d="M21.0389 33.4512H20.8897C20.8585 33.4518 20.8276 33.4454 20.7992 33.4325C20.7708 33.4196 20.7457 33.4004 20.7256 33.3765L17.7414 30.2839C17.7414 30.2839 16.861 29.3127 16.7715 29.1335C16.7715 29.3875 16.7715 30.0149 16.7715 30.3884V33.4512H15.4136V26.6833C15.4136 26.6397 15.4309 26.5979 15.4617 26.5671C15.4925 26.5362 15.5342 26.5189 15.5778 26.5189H15.6971C15.7661 26.5179 15.8346 26.5306 15.8986 26.5563C15.9626 26.5819 16.0209 26.62 16.0702 26.6683L19.6662 30.2092C19.8303 30.4631 19.5767 30.5229 19.6662 30.7022C19.6662 30.4482 19.6662 29.8357 19.6662 29.4472V26.4592H21.0389V33.4512Z" fill="black"/>
<path d="M28.7234 29.9851C28.748 30.4531 28.6728 30.9211 28.5027 31.3578C28.3326 31.7945 28.0717 32.19 27.7371 32.5179C27.4026 32.8458 27.0022 33.0986 26.5625 33.2595C26.1228 33.4204 25.6539 33.4858 25.1871 33.4512H23.2622C23.2433 33.4513 23.2245 33.4474 23.2072 33.4397C23.1898 33.4321 23.1743 33.4208 23.1616 33.4067C23.1489 33.3926 23.1394 33.3759 23.1336 33.3578C23.1278 33.3398 23.1258 33.3207 23.128 33.3018V26.6683C23.1256 26.6481 23.1278 26.6277 23.1344 26.6084C23.1411 26.5892 23.152 26.5718 23.1663 26.5574C23.1807 26.543 23.1981 26.5321 23.2173 26.5254C23.2365 26.5187 23.257 26.5165 23.2772 26.5189H25.3661C25.8277 26.4721 26.2939 26.5304 26.7297 26.6896C27.1656 26.8488 27.5598 27.1048 27.8828 27.4382C28.2058 27.7717 28.4492 28.1741 28.5948 28.6151C28.7404 29.0562 28.7843 29.5245 28.7234 29.9851ZM27.3059 29.9851C27.3059 28.5657 26.7091 27.8635 25.2319 27.8635H24.5604V31.9572C24.5604 31.9809 24.5698 32.0037 24.5866 32.0206C24.6034 32.0374 24.6262 32.0468 24.6499 32.0468H25.2468C25.5229 32.0694 25.8006 32.0316 26.0607 31.936C26.3208 31.8403 26.5569 31.6892 26.7528 31.4931C26.9488 31.2969 27.0997 31.0604 27.1952 30.8C27.2907 30.5396 27.3285 30.2615 27.3059 29.9851Z" fill="black"/>
<path d="M31.9017 33.4512H30.514V26.5189H31.9017V33.4512Z" fill="black"/>
<path d="M39.3772 27.7141L38.3327 28.3566C38.0791 27.8785 37.5568 27.7739 36.9301 27.7739C36.3614 27.7971 35.8241 28.0408 35.4315 28.4534C35.0389 28.866 34.8219 29.4152 34.8262 29.9851C34.8332 30.5526 35.0564 31.096 35.4503 31.5043C35.8441 31.9125 36.3788 32.1547 36.945 32.1813C37.2367 32.2225 37.534 32.1765 37.7995 32.0488C38.065 31.9212 38.2869 31.7178 38.4372 31.4641L39.5115 32.1663C39.2786 32.6343 38.9071 33.0188 38.4477 33.2675C37.9884 33.5162 37.4636 33.6168 36.945 33.5558C36.4789 33.5579 36.0171 33.4665 35.5868 33.2871C35.1565 33.1076 34.7665 32.8437 34.4397 32.5109C34.1129 32.1781 33.8559 31.7832 33.684 31.3494C33.512 30.9156 33.4286 30.4517 33.4385 29.9851C33.4385 29.0367 33.8138 28.1269 34.4821 27.4549C35.1505 26.7829 36.0575 26.4034 37.0047 26.3994C37.4878 26.3429 37.9764 26.4393 38.4019 26.6752C38.8274 26.911 39.1685 27.2743 39.3772 27.7141Z" fill="black"/>
<path d="M54 28.7151C54 30.3137 52.9256 30.9861 51.4932 30.9861H50.0011V33.4512H48.6134V26.8924C48.6134 26.8499 48.6219 26.8079 48.6386 26.7688C48.6553 26.7297 48.6797 26.6945 48.7104 26.6651C48.7411 26.6358 48.7774 26.613 48.8172 26.5981C48.8569 26.5833 48.8993 26.5767 48.9417 26.5787H51.6424C51.9404 26.5495 52.2411 26.5831 52.5254 26.6771C52.8097 26.7712 53.0712 26.9236 53.2931 27.1248C53.5151 27.3259 53.6927 27.5713 53.8144 27.8452C53.9361 28.1191 53.9993 28.4154 54 28.7151ZM52.5078 28.7151C52.5078 28.1026 52.1199 27.8337 51.5081 27.8337H49.9712V29.6116H51.5827C52.2243 29.6414 52.5675 29.3426 52.5675 28.745L52.5078 28.7151Z" fill="black"/>
<path d="M16.0851 4.78088L14.1901 5.69223L12.9069 2.98805L13.4291 2.71912L14.4736 4.9004L15.8314 4.25797L16.0851 4.78088Z" fill="black"/>
<path d="M19.3081 3.80976L17.2341 4.39243L16.4134 1.49402L18.4278 0.941235L18.5919 1.50896L17.0998 1.89741L17.2639 2.46514L18.756 2.04681L18.9052 2.61454L17.4877 2.98805L17.6519 3.61554L19.144 3.19721L19.3081 3.80976Z" fill="black"/>
<path d="M23.5458 1.38944L24.262 0.0747013H24.8439L25.0826 3.06275H24.4858L24.3963 1.97211C24.3963 1.80777 24.3963 1.41932 24.3963 1.31474C24.3963 1.21016 24.1575 1.67331 24.0978 1.83765L23.874 2.18128H23.0086C22.9191 2.01693 22.4864 1.55378 22.4267 1.43426C22.4267 1.55378 22.4267 1.91235 22.5013 2.07669V3.19721H21.9193L21.6806 0.209163H22.2625L23.2623 1.3745L23.5458 1.38944Z" fill="black"/>
<path d="M29.3352 1.58367C29.3352 2.55478 28.7383 3.07769 27.9475 3.07769C27.7559 3.07046 27.5681 3.02177 27.3971 2.93496C27.226 2.84815 27.0758 2.72527 26.9567 2.57479C26.8376 2.42431 26.7524 2.24978 26.7071 2.06322C26.6618 1.87665 26.6574 1.68247 26.6941 1.49402C26.6941 0.522908 27.291 0 28.0669 0C28.2581 0.0099735 28.445 0.0603173 28.6154 0.147728C28.7858 0.235138 28.9358 0.357638 29.0556 0.507189C29.1753 0.65674 29.2622 0.829961 29.3103 1.01548C29.3585 1.20101 29.367 1.39464 29.3352 1.58367ZM28.7085 1.58367C28.7085 0.971115 28.4548 0.61255 28.037 0.59761C27.6192 0.582669 27.3208 0.911355 27.3059 1.5239C27.291 2.13645 27.5596 2.48008 27.9774 2.49502C28.3952 2.50996 28.6936 2.18127 28.7085 1.58367Z" fill="black"/>
<path d="M32.976 3.58566L32.4388 3.49602L31.5883 1.71813C31.5883 1.59861 31.4689 1.43426 31.4391 1.34462C31.4093 1.25498 31.4391 1.83765 31.3496 2.00199L31.1556 3.30179L30.5737 3.21215L31.0064 0.224104H31.5883L32.3941 1.95717C32.4558 2.07847 32.5106 2.20317 32.5582 2.33068C32.5582 2.21116 32.5582 1.83765 32.6477 1.67331L32.8268 0.522909L33.4087 0.61255L32.976 3.58566Z" fill="black"/>
<path d="M37.139 3.13745C37.0829 3.32949 36.9888 3.5083 36.8624 3.66325C36.736 3.81821 36.5798 3.94617 36.4031 4.03953C36.2263 4.13289 36.0326 4.18975 35.8335 4.20675C35.6344 4.22374 35.4339 4.20051 35.244 4.13845L34.3188 3.88446L35.229 1.01594L36.1392 1.26992C36.3402 1.30475 36.5306 1.38495 36.696 1.50446C36.8615 1.62396 36.9975 1.77962 37.0939 1.95963C37.1902 2.13963 37.2444 2.33925 37.2522 2.54333C37.26 2.74741 37.2213 2.95059 37.139 3.13745ZM36.5421 2.98805C36.5976 2.87583 36.6258 2.75203 36.6243 2.62681C36.6228 2.50158 36.5916 2.37851 36.5333 2.26768C36.4751 2.15686 36.3914 2.06145 36.2892 1.9893C36.1869 1.91714 36.0691 1.87029 35.9453 1.85259L35.6468 1.76295L35.1246 3.5259L35.4081 3.61554C35.523 3.66484 35.6476 3.68722 35.7724 3.68097C35.8972 3.67473 36.019 3.64001 36.1284 3.57948C36.2378 3.51895 36.3319 3.43421 36.4036 3.33171C36.4753 3.22921 36.5227 3.11167 36.5421 2.98805Z" fill="black"/>
<path d="M39.78 5.9761L37.8701 5.00498L39.2429 2.33068L41.0931 3.28685L40.8245 3.80976L39.4965 3.12251L39.2727 3.58566L40.5261 4.25797L40.2874 4.8257L39.034 4.15339L38.7057 4.79582L40.0785 5.49801L39.78 5.9761Z" fill="black"/>
<path d="M11.0567 52.9333C10.9658 53.1471 10.8264 53.3368 10.6495 53.4873C10.4727 53.6377 10.2632 53.7448 10.0377 53.7999C9.81226 53.8551 9.57706 53.8568 9.35082 53.805C9.12457 53.7532 8.91352 53.6492 8.73443 53.5014C8.55535 53.3536 8.41317 53.166 8.31919 52.9535C8.22522 52.741 8.18204 52.5095 8.1931 52.2774C8.20416 52.0453 8.26914 51.819 8.38288 51.6164C8.49662 51.4138 8.65599 51.2406 8.84831 51.1106C8.93913 50.8967 9.07853 50.707 9.25541 50.5566C9.4323 50.4061 9.64179 50.2991 9.86725 50.2439C10.0927 50.1887 10.3279 50.187 10.5541 50.2388C10.7804 50.2906 10.9914 50.3946 11.1705 50.5424C11.3496 50.6902 11.4918 50.8778 11.5858 51.0903C11.6797 51.3028 11.7229 51.5343 11.7119 51.7664C11.7008 51.9985 11.6358 52.2249 11.5221 52.4274C11.4083 52.63 11.249 52.8032 11.0567 52.9333ZM10.5344 52.5149C10.9522 52.007 10.9522 51.5139 10.609 51.2301C10.2658 50.9462 9.78835 51.0209 9.37055 51.5289C8.95276 52.0369 8.95276 52.5299 9.37055 52.8137C9.78835 53.0976 10.1166 53.0229 10.5344 52.5149Z" fill="black"/>
<path d="M13.8469 55.4283C13.7722 55.5506 13.6724 55.6557 13.5542 55.7367C13.436 55.8176 13.3021 55.8726 13.1611 55.898C13.0202 55.9234 12.8755 55.9187 12.7365 55.884C12.5975 55.8494 12.4674 55.7858 12.3548 55.6972L11.1163 54.9203L12.8323 52.1863L14.0857 52.9631C14.6228 53.2918 14.8019 53.7699 14.5035 54.2331C14.4401 54.343 14.3486 54.4342 14.2385 54.4972C14.1284 54.5602 14.0036 54.5928 13.8768 54.5916C13.9599 54.7167 14.0018 54.8647 13.9964 55.0148C13.9911 55.1649 13.9388 55.3095 13.8469 55.4283ZM13.2799 55.0847C13.4291 54.8456 13.3694 54.6514 13.1009 54.4871L12.3697 54.0239L11.937 54.741L12.6681 55.1892C12.7131 55.2279 12.766 55.2562 12.8231 55.2721C12.8802 55.2879 12.9402 55.291 12.9986 55.281C13.057 55.271 13.1125 55.2482 13.1612 55.2143C13.2098 55.1804 13.2503 55.1361 13.2799 55.0847ZM13.8768 53.9343C13.9812 53.755 13.8768 53.6056 13.6977 53.4562L13.0113 53.0229L12.6831 53.5458L13.3993 53.994C13.638 54.1434 13.7872 54.0837 13.8768 53.9343Z" fill="black"/>
<path d="M16.9953 56.997C16.7416 57.5498 16.2194 57.7739 15.4136 57.4153C15.1898 57.3243 14.9914 57.1802 14.8354 56.9955C14.6795 56.8107 14.5707 56.5908 14.5184 56.3546L15.1152 56.1753C15.1604 56.3239 15.2371 56.4609 15.3401 56.5769C15.4431 56.693 15.57 56.7853 15.7121 56.8476C16.0702 57.012 16.2791 56.9821 16.3686 56.758C16.4581 56.5339 16.3686 56.4442 15.906 56.0558C15.4435 55.6673 15.1152 55.3386 15.3838 54.7709C15.448 54.6391 15.5399 54.5227 15.6533 54.4298C15.7667 54.3369 15.8988 54.2697 16.0406 54.2328C16.1823 54.1959 16.3304 54.1901 16.4746 54.216C16.6188 54.2418 16.7557 54.2986 16.8759 54.3825C17.0824 54.467 17.2673 54.5967 17.4171 54.7622C17.5668 54.9277 17.6776 55.1246 17.7414 55.3386L17.1296 55.5478C17.0888 55.4155 17.0215 55.2928 16.9317 55.1875C16.8419 55.0822 16.7315 54.9963 16.6073 54.9353C16.2791 54.8008 16.1149 54.9353 16.0553 54.9353C15.9956 54.9353 16.0553 55.249 16.488 55.5627C16.9207 55.8765 17.2937 56.3546 16.9953 56.997Z" fill="black"/>
<path d="M20.0243 59.0289L17.816 58.3416L18.7709 55.2789L20.9196 55.9512L20.7405 56.5488L19.2484 56.0857L19.0843 56.6086L20.5764 57.0867L20.3824 57.6843L18.8903 57.2211L18.6516 57.9681L20.2481 58.4612L20.0243 59.0289Z" fill="black"/>
<path d="M23.874 59.761L23.1428 59.6265L22.7698 58.3865L22.158 58.2669L21.9641 59.4173L21.3224 59.3128L21.8745 56.1155L23.3667 56.3695C23.5103 56.3795 23.6501 56.42 23.7769 56.4883C23.9037 56.5565 24.0145 56.6511 24.102 56.7655C24.1895 56.88 24.2517 57.0118 24.2844 57.1522C24.3171 57.2925 24.3196 57.4383 24.2918 57.5797C24.2744 57.7859 24.1885 57.9803 24.0479 58.1319C23.9072 58.2836 23.72 58.3837 23.5159 58.4163L23.874 59.761ZM23.5905 57.4751C23.5905 57.1912 23.486 57.0418 23.2025 56.997L22.3669 56.8476L22.2326 57.6693L23.0682 57.8187C23.3816 57.8934 23.5756 57.7889 23.6203 57.505L23.5905 57.4751Z" fill="black"/>
<path d="M27.9027 56.7729L26.6195 59.9552H25.9928L24.9781 56.6833H25.6944L26.2315 58.5807C26.2315 58.76 26.336 58.999 26.3509 59.1185C26.3509 58.999 26.4554 58.7749 26.53 58.5956L27.2014 56.7729H27.9027Z" fill="black"/>
<path d="M31.3346 59.761H30.6333L30.32 59.0737L29.1412 59.1633L28.9472 59.8954H28.2459L29.2307 56.5637H29.8574L31.3346 59.761ZM30.0514 58.5209L29.8425 57.9532C29.753 57.759 29.6784 57.5797 29.6336 57.4602C29.6069 57.6323 29.567 57.8021 29.5142 57.9681L29.3501 58.5807L30.0514 58.5209Z" fill="black"/>
<path d="M33.8265 56.6384L32.9163 56.8177L33.4087 59.3576L32.782 59.492L32.2747 56.9373L31.3645 57.1165L31.2451 56.489L33.7071 56.011L33.8265 56.6384Z" fill="black"/>
<path d="M37.4076 56.5339C37.4946 56.7211 37.5419 56.9243 37.5466 57.1307C37.5512 57.3371 37.5131 57.5423 37.4345 57.7332C37.356 57.9241 37.2388 58.0966 37.0904 58.2399C36.9419 58.3832 36.7654 58.4942 36.572 58.5657C35.7662 58.8347 35.0799 58.4313 34.7068 57.4303C34.5693 57.2401 34.4786 57.0201 34.4419 56.7882C34.4051 56.5563 34.4235 56.319 34.4956 56.0956C34.5676 55.8721 34.6911 55.6688 34.8563 55.5021C35.0214 55.3354 35.2235 55.2101 35.4461 55.1362C35.6687 55.0623 35.9055 55.042 36.1374 55.0769C36.3693 55.1118 36.5897 55.2009 36.7807 55.3371C36.9718 55.4732 37.1281 55.6525 37.237 55.8605C37.3459 56.0684 37.4044 56.2991 37.4076 56.5339ZM36.7809 56.743C36.572 56.1305 36.1542 55.8616 35.7215 56.011C35.2888 56.1604 35.1246 56.5936 35.3335 57.2211C35.5424 57.8486 35.9453 58.1026 36.378 57.9532C36.8107 57.8038 36.9749 57.3705 36.7809 56.7729V56.743Z" fill="black"/>
<path d="M39.6756 57.2958L39.0787 57.5647L37.7507 54.5767L38.3476 54.3078L39.6756 57.2958Z" fill="black"/>
<path d="M43.2716 55.3536L42.63 55.7271L41.5557 55.01L40.9887 55.3386L41.5706 56.3546L41.0185 56.6683L39.3921 53.8745L40.6902 53.1125C40.8058 53.024 40.9392 52.9618 41.0812 52.9303C41.2233 52.8987 41.3705 52.8986 41.5125 52.9299C41.6546 52.9612 41.7882 53.0232 41.9039 53.1115C42.0195 53.1998 42.1146 53.3123 42.1824 53.4412C42.3133 53.6014 42.3848 53.802 42.3848 54.009C42.3848 54.2159 42.3133 54.4165 42.1824 54.5767L43.2716 55.3536ZM41.6004 53.8596C41.5738 53.8073 41.5358 53.7618 41.4891 53.7264C41.4424 53.691 41.3883 53.6666 41.3309 53.6551C41.2735 53.6436 41.2142 53.6453 41.1575 53.66C41.1008 53.6747 41.0482 53.7021 41.0036 53.74L40.2724 54.1733L40.6902 54.8904L41.4214 54.4572C41.4899 54.4388 41.552 54.4019 41.601 54.3506C41.65 54.2993 41.6841 54.2356 41.6995 54.1663C41.7148 54.097 41.711 54.0248 41.6882 53.9576C41.6655 53.8903 41.6248 53.8306 41.5706 53.7849L41.6004 53.8596Z" fill="black"/>
<path d="M46.1514 53.2022L44.3311 54.6066L42.3615 52.0518L44.1371 50.6773L44.525 51.1853L43.2567 52.1564L43.5999 52.5896L44.3311 52.0369L44.7041 52.5299L43.9729 53.0976L44.4504 53.7102L45.7784 52.6942L46.1514 53.2022Z" fill="black"/>
</g>
<defs>
<clipPath id="clip0_195_5166">
<rect width="54" height="60" fill="white"/>
</clipPath>
</defs>
</svg>
