<svg width="390" height="420" viewBox="0 0 390 420" fill="none" xmlns="http://www.w3.org/2000/svg">
<g clip-path="url(#clip0_305_397)">
<path fill-rule="evenodd" clip-rule="evenodd" d="M65.9063 128.789C109.752 120.521 152.049 149.4 160.301 193.238C168.552 237.077 139.648 279.383 95.7996 287.651C51.9513 295.92 9.65411 267.038 1.4052 223.2C-6.8437 179.361 22.058 137.057 65.9063 128.789Z" fill="#DAEBFF"/>
<path fill-rule="evenodd" clip-rule="evenodd" d="M324.908 194.438C325.055 192.695 324.752 190.943 324.029 189.35C323.306 187.758 322.187 186.377 320.779 185.342C301.259 171.008 225.619 115.39 207.734 102.241C206.583 101.394 205.223 100.877 203.801 100.745C202.378 100.614 200.946 100.873 199.66 101.495C179.432 111.268 93.0262 152.988 70.7666 163.749C69.1684 164.521 67.7987 165.697 66.7926 167.16C65.7864 168.623 65.1785 170.324 65.0287 172.094C62.828 198.236 53.8234 305.117 50.9942 338.723C50.767 341.418 51.6162 344.093 53.3558 346.162C55.0953 348.231 57.5833 349.526 60.2745 349.762L299.792 370.466C301.13 370.581 302.476 370.431 303.756 370.025C305.035 369.619 306.222 368.964 307.248 368.098C308.274 367.232 309.12 366.172 309.736 364.979C310.353 363.786 310.728 362.482 310.841 361.144C313.705 327.437 322.723 220.386 324.908 194.438Z" fill="#003C86"/>
<path fill-rule="evenodd" clip-rule="evenodd" d="M239.38 25.253C239.611 24.3022 239.652 23.3151 239.501 22.3483C239.35 21.3816 239.01 20.4542 238.5 19.6194C237.99 18.7846 237.32 18.0589 236.529 17.4838C235.739 16.9087 234.842 16.4956 233.891 16.2682L166.903 0.207032C164.991 -0.252497 162.974 0.0662828 161.297 1.0934C159.619 2.12052 158.417 3.77205 157.954 5.6855C154.404 20.3319 146.378 53.4363 142.819 68.1199C142.588 69.0709 142.546 70.0582 142.697 71.0253C142.848 71.9923 143.188 72.92 143.698 73.7551C144.208 74.5902 144.878 75.3162 145.669 75.8915C146.46 76.4668 147.357 76.8799 148.308 77.1073L215.304 93.1658C217.217 93.6261 219.234 93.3077 220.912 92.2806C222.591 91.2534 223.793 89.6014 224.256 87.6873C227.795 73.0409 235.822 39.9365 239.38 25.253Z" fill="#E3F0FF"/>
<path d="M211.457 85.917C210.841 85.9087 210.228 85.8313 209.63 85.686L209.224 85.5905L207.742 85.2348C207.554 85.1925 207.387 85.0873 207.267 84.9367C207.148 84.786 207.083 84.5991 207.084 84.4067C207.084 84.3431 207.092 84.2798 207.108 84.2182C207.151 84.0327 207.256 83.8673 207.406 83.7492C207.555 83.631 207.74 83.5671 207.93 83.5679C207.996 83.5678 208.062 83.5759 208.126 83.5918L208.795 83.7511L210.017 84.0404C210.493 84.1565 210.98 84.2188 211.47 84.2262C211.694 84.229 211.907 84.3205 212.064 84.4807C212.221 84.6409 212.307 84.8567 212.305 85.0809C212.301 85.3036 212.21 85.5159 212.051 85.6721C211.893 85.8284 211.679 85.9163 211.457 85.917ZM216.553 83.9714C216.436 83.9724 216.32 83.9493 216.213 83.9037C216.105 83.858 216.008 83.7907 215.927 83.7059C215.776 83.5396 215.698 83.3202 215.708 83.0959C215.719 82.8715 215.817 82.6605 215.983 82.5088C216.772 81.7891 217.374 80.8882 217.738 79.8837C217.797 79.7196 217.905 79.5776 218.047 79.4773C218.19 79.3771 218.359 79.3234 218.534 79.3237C218.632 79.3247 218.73 79.3417 218.823 79.3741C218.927 79.4121 219.023 79.4702 219.105 79.5453C219.187 79.6205 219.254 79.711 219.301 79.8118C219.348 79.9127 219.374 80.0218 219.379 80.1329C219.384 80.2441 219.367 80.3552 219.329 80.4597C218.874 81.7242 218.117 82.8579 217.123 83.7617C216.966 83.9005 216.762 83.9753 216.553 83.9714ZM202.5 83.9528C202.434 83.9535 202.368 83.9463 202.304 83.9315L198.801 83.0928C198.615 83.0483 198.45 82.9418 198.332 82.7908C198.215 82.6399 198.152 82.4534 198.154 82.262C198.155 82.1976 198.163 82.1336 198.178 82.0709C198.222 81.8854 198.328 81.7202 198.477 81.6022C198.627 81.4841 198.812 81.4202 199.002 81.4206C199.069 81.4205 199.134 81.4285 199.199 81.4445L199.644 81.5506L202.685 82.2832C202.795 82.3068 202.899 82.3526 202.99 82.4179C203.081 82.4832 203.158 82.5666 203.216 82.6628C203.295 82.7911 203.338 82.9382 203.341 83.0888C203.344 83.2394 203.307 83.3881 203.233 83.5196C203.16 83.651 203.052 83.7605 202.923 83.8366C202.793 83.9128 202.645 83.9529 202.495 83.9528H202.5ZM193.562 81.8108C193.495 81.8105 193.428 81.8025 193.363 81.7869L189.849 80.9561C189.663 80.9115 189.497 80.8046 189.38 80.6531C189.262 80.5016 189.2 80.3145 189.202 80.1226C189.203 80.0584 189.21 79.9943 189.224 79.9315C189.268 79.7469 189.374 79.5827 189.523 79.4652C189.672 79.3478 189.856 79.2839 190.046 79.2839C190.112 79.2842 190.179 79.2913 190.244 79.3051L193.744 80.1439C193.948 80.1903 194.127 80.3104 194.247 80.481C194.368 80.6516 194.421 80.8607 194.396 81.0682C194.372 81.2756 194.272 81.4667 194.115 81.6048C193.959 81.7428 193.757 81.8181 193.548 81.8161L193.562 81.8108ZM184.623 79.6661C184.557 79.6657 184.492 79.6586 184.427 79.6449L181.775 79.0052L180.94 78.8061C180.754 78.7621 180.588 78.6558 180.47 78.5048C180.352 78.3538 180.289 78.1671 180.291 77.9753C180.291 77.9109 180.299 77.8466 180.314 77.7842C180.358 77.5986 180.463 77.4333 180.612 77.3152C180.761 77.197 180.946 77.1331 181.136 77.1339C181.203 77.1338 181.268 77.1418 181.333 77.1578L184.811 77.9965C185.013 78.0454 185.189 78.1663 185.307 78.3364C185.425 78.5065 185.476 78.714 185.452 78.9196C185.427 79.1253 185.328 79.3148 185.174 79.4523C185.019 79.5899 184.819 79.6659 184.613 79.6661H184.623ZM175.69 77.5267C175.624 77.5268 175.558 77.5188 175.494 77.5028L171.991 76.6641C171.805 76.6205 171.638 76.5144 171.52 76.3633C171.402 76.2122 171.339 76.0252 171.342 75.8333C171.342 75.7689 171.35 75.7047 171.366 75.6422C171.418 75.4244 171.555 75.2364 171.746 75.1191C171.937 75.0017 172.166 74.9646 172.384 75.0158L172.516 75.0476L175.886 75.8572C176.087 75.906 176.263 76.0267 176.381 76.1965C176.499 76.3663 176.551 76.5735 176.527 76.7789C176.503 76.9844 176.404 77.1739 176.25 77.3117C176.096 77.4494 175.897 77.5259 175.69 77.5267ZM219.904 75.5838C219.837 75.5837 219.769 75.5757 219.703 75.5599C219.517 75.5153 219.352 75.4087 219.235 75.2577C219.118 75.1067 219.056 74.9203 219.059 74.7291C219.059 74.6638 219.067 74.5987 219.082 74.5353L219.12 74.384C219.385 73.3223 219.65 72.1942 219.931 71.0343C219.984 70.8161 220.121 70.6278 220.312 70.5108C220.504 70.3939 220.734 70.3578 220.952 70.4106C221.061 70.4352 221.165 70.4817 221.256 70.5474C221.347 70.6131 221.424 70.6966 221.482 70.7928C221.541 70.887 221.581 70.9923 221.598 71.1023C221.615 71.2122 221.61 71.3246 221.583 71.4325C221.376 72.2871 221.175 73.1206 220.978 73.9249L220.734 74.9361C220.689 75.1239 220.581 75.2904 220.428 75.4082C220.275 75.526 220.087 75.588 219.894 75.5838H219.904ZM166.741 75.3821C166.675 75.3817 166.61 75.3746 166.545 75.3608L163.894 74.7238L163.034 74.5194C162.849 74.475 162.684 74.3689 162.566 74.2185C162.449 74.0681 162.386 73.8822 162.387 73.6913C162.387 73.626 162.396 73.5609 162.411 73.4975C162.465 73.2801 162.602 73.0926 162.792 72.9753C162.983 72.8581 163.212 72.8207 163.43 72.8711L163.848 72.972L166.932 73.7125C167.04 73.7381 167.142 73.7848 167.232 73.8499C167.322 73.915 167.398 73.9973 167.457 74.092C167.515 74.1867 167.554 74.292 167.571 74.4018C167.588 74.5115 167.584 74.6237 167.558 74.7318C167.514 74.916 167.41 75.0801 167.262 75.198C167.114 75.3159 166.93 75.3807 166.741 75.3821ZM157.803 73.24C157.735 73.2398 157.668 73.2318 157.601 73.2161L157.336 73.1525L156.806 73.0197C155.805 72.7824 154.858 72.3583 154.014 71.7696C153.902 71.6928 153.811 71.5903 153.747 71.4706C153.683 71.3509 153.649 71.2177 153.648 71.0821C153.644 70.9121 153.693 70.7451 153.789 70.6043C153.851 70.5124 153.932 70.434 154.025 70.3735C154.119 70.313 154.223 70.2716 154.333 70.2519C154.442 70.2321 154.555 70.2343 154.663 70.2584C154.772 70.2824 154.875 70.3279 154.966 70.392C155.637 70.8603 156.391 71.1971 157.188 71.3847L157.983 71.5811C158.186 71.6275 158.365 71.7474 158.486 71.9177C158.606 72.088 158.659 72.2968 158.635 72.5041C158.611 72.7113 158.512 72.9024 158.356 73.0406C158.2 73.1789 157.998 73.2546 157.79 73.2533L157.803 73.24ZM151.455 67.3767C151.262 67.3762 151.075 67.3095 150.925 67.1878C150.775 67.0662 150.671 66.8968 150.631 66.7078C150.364 65.4879 150.381 64.2231 150.678 63.0104C150.678 62.9732 150.697 62.9361 150.705 62.8989L150.737 62.7662C150.78 62.5816 150.885 62.4172 151.034 62.2996C151.182 62.182 151.367 62.1182 151.556 62.1185C151.625 62.1185 151.693 62.1265 151.76 62.1424C151.946 62.1865 152.112 62.2929 152.23 62.4439C152.347 62.595 152.41 62.7817 152.407 62.9732C152.404 63.0375 152.396 63.1014 152.383 63.1643C152.367 63.228 152.351 63.2917 152.338 63.3528L152.322 63.4112C152.199 63.9196 152.136 64.4408 152.134 64.9639C152.135 65.4307 152.186 65.8961 152.285 66.3521C152.332 66.5717 152.289 66.8008 152.168 66.9893C152.046 67.1778 151.855 67.3104 151.636 67.3581C151.576 67.3709 151.516 67.3771 151.455 67.3767ZM222.06 66.6415C221.993 66.641 221.927 66.6339 221.861 66.6202C221.675 66.5752 221.51 66.4682 221.392 66.3168C221.275 66.1654 221.212 65.9785 221.214 65.7868C221.217 65.7225 221.225 65.6586 221.238 65.5957C221.403 64.9215 221.57 64.2367 221.734 63.5492C221.851 63.0661 221.967 62.583 222.087 62.0947C222.131 61.9096 222.236 61.7447 222.385 61.6268C222.534 61.5088 222.719 61.4445 222.909 61.4443C222.976 61.4443 223.042 61.4523 223.107 61.4682C223.216 61.4941 223.318 61.5411 223.408 61.6067C223.498 61.6723 223.575 61.7552 223.632 61.8504C223.69 61.9457 223.729 62.0515 223.746 62.1618C223.763 62.272 223.757 62.3845 223.731 62.4928L223.428 63.7536C223.245 64.5074 223.062 65.2533 222.898 65.9965C222.852 66.1832 222.744 66.3489 222.592 66.4661C222.44 66.5833 222.252 66.6452 222.06 66.6415ZM152.879 58.3733C152.811 58.3731 152.744 58.3651 152.678 58.3494C152.568 58.3241 152.465 58.2773 152.374 58.2117C152.283 58.146 152.206 58.063 152.147 57.9672C152.089 57.8727 152.05 57.7674 152.033 57.6575C152.015 57.5477 152.02 57.4355 152.047 57.3275L152.402 55.8677C152.561 55.1988 152.728 54.5193 152.898 53.8239C152.941 53.6393 153.046 53.4748 153.195 53.3573C153.343 53.2397 153.527 53.1759 153.717 53.1762C153.785 53.1758 153.853 53.1838 153.919 53.2001C154.105 53.2447 154.271 53.3516 154.388 53.5031C154.506 53.6546 154.568 53.8417 154.565 54.0336C154.565 54.0971 154.557 54.1604 154.542 54.222C154.39 54.8537 154.237 55.4775 154.091 56.08L153.69 57.7177C153.648 57.9022 153.545 58.0672 153.398 58.1861C153.251 58.305 153.068 58.371 152.879 58.3733ZM224.226 57.7071C224.114 57.7071 224.003 57.6848 223.9 57.6414C223.796 57.598 223.702 57.5345 223.624 57.4544C223.545 57.3744 223.483 57.2795 223.441 57.1752C223.399 57.0709 223.379 56.9594 223.381 56.8471C223.383 56.7837 223.391 56.7207 223.404 56.6587C223.688 55.4934 223.972 54.3202 224.253 53.155C224.298 52.9706 224.403 52.8067 224.552 52.6893C224.701 52.5719 224.885 52.5078 225.075 52.5073C225.143 52.5074 225.21 52.5154 225.276 52.5312C225.385 52.5573 225.487 52.6046 225.576 52.6703C225.666 52.7361 225.742 52.8189 225.8 52.9142C225.857 53.0094 225.896 53.1151 225.912 53.2253C225.929 53.3354 225.924 53.4477 225.897 53.5558C225.616 54.721 225.332 55.8916 225.051 57.0594C225.006 57.2443 224.9 57.4085 224.751 57.526C224.601 57.6434 224.416 57.7072 224.226 57.7071ZM155.045 49.4337C154.978 49.4333 154.91 49.4252 154.844 49.4098C154.736 49.3836 154.634 49.3364 154.544 49.2706C154.454 49.2049 154.378 49.122 154.321 49.0268C154.263 48.9316 154.225 48.8258 154.208 48.7157C154.191 48.6056 154.197 48.4933 154.223 48.3852C154.418 47.5889 154.612 46.7838 154.807 45.9698L155.072 44.8815C155.117 44.6972 155.222 44.5332 155.371 44.4158C155.52 44.2984 155.704 44.2344 155.894 44.2339C155.962 44.234 156.029 44.242 156.095 44.2578C156.281 44.3039 156.446 44.4116 156.563 44.5634C156.68 44.7152 156.742 44.9022 156.74 45.0939C156.739 45.1574 156.731 45.2207 156.716 45.2823C156.43 46.4635 156.148 47.634 155.867 48.7833C155.823 48.9684 155.718 49.1333 155.569 49.2512C155.42 49.3692 155.235 49.4335 155.045 49.4337ZM226.395 48.7621C226.328 48.762 226.26 48.754 226.194 48.7382C226.008 48.6945 225.842 48.5882 225.725 48.437C225.608 48.2857 225.546 48.0988 225.55 47.9074C225.55 47.8439 225.558 47.7806 225.573 47.719C225.857 46.5325 226.143 45.3646 226.422 44.2153C226.448 44.1073 226.495 44.0054 226.561 43.9157C226.627 43.8259 226.709 43.75 226.804 43.6922C226.899 43.6344 227.004 43.5959 227.114 43.5788C227.224 43.5618 227.336 43.5666 227.444 43.5929C227.552 43.6192 227.654 43.6665 227.743 43.7322C227.833 43.7979 227.909 43.8806 227.967 43.9756C228.024 44.0706 228.063 44.1761 228.08 44.286C228.097 44.3959 228.092 44.508 228.066 44.6161L227.217 48.1171C227.173 48.3017 227.068 48.4658 226.919 48.5829C226.769 48.7 226.585 48.7632 226.395 48.7621ZM157.214 40.4913C157.146 40.4916 157.079 40.4835 157.013 40.4674C156.796 40.4134 156.608 40.2758 156.492 40.0845C156.375 39.8932 156.338 39.6637 156.39 39.4455L156.753 37.9512C156.915 37.2823 157.076 36.624 157.241 35.9419C157.285 35.7573 157.389 35.5928 157.538 35.4753C157.687 35.3577 157.871 35.2939 158.06 35.2942C158.128 35.2943 158.196 35.3023 158.262 35.3181C158.448 35.3633 158.614 35.4707 158.732 35.6226C158.849 35.7746 158.912 35.962 158.909 36.1542C158.909 36.2178 158.901 36.2811 158.885 36.3427L158.471 38.0494L158.031 39.8437C157.988 40.0278 157.883 40.1919 157.735 40.3094C157.587 40.427 157.403 40.491 157.214 40.4913ZM228.562 39.8145C228.495 39.8144 228.428 39.8064 228.363 39.7906C228.176 39.7469 228.011 39.6407 227.893 39.4895C227.775 39.3384 227.713 39.1514 227.716 38.9598C227.716 38.8954 227.724 38.8312 227.74 38.7687C228.031 37.5557 228.318 36.3798 228.588 35.2677C228.632 35.0828 228.738 34.9184 228.887 34.8008C229.036 34.6833 229.22 34.6196 229.41 34.62C229.478 34.6201 229.546 34.6281 229.612 34.6439C229.721 34.6685 229.825 34.7151 229.916 34.7808C230.007 34.8464 230.084 34.9299 230.142 35.0261C230.2 35.1211 230.238 35.2264 230.255 35.3362C230.272 35.446 230.267 35.558 230.24 35.6658C229.975 36.7859 229.686 37.9565 229.392 39.1695C229.347 39.3552 229.24 39.52 229.089 39.6372C228.939 39.7544 228.753 39.8169 228.562 39.8145ZM159.381 31.5543C159.313 31.5542 159.245 31.5462 159.179 31.5304C158.961 31.477 158.773 31.3391 158.656 31.1471C158.539 30.955 158.503 30.7244 158.556 30.5059C158.787 29.5636 159.012 28.6266 159.235 27.7029L159.407 27.0075C159.45 26.8227 159.555 26.658 159.704 26.5403C159.853 26.4227 160.037 26.3591 160.227 26.3598C160.294 26.3599 160.362 26.368 160.428 26.3837C160.614 26.4278 160.78 26.5342 160.897 26.6852C161.015 26.8363 161.078 27.023 161.075 27.2145C161.075 27.279 161.067 27.3432 161.051 27.4056C160.9 28.0188 160.752 28.6372 160.6 29.2637C160.47 29.8078 160.335 30.3572 160.203 30.9093C160.158 31.0934 160.052 31.257 159.903 31.374C159.754 31.4909 159.57 31.5544 159.381 31.5543ZM230.707 31.0075C230.64 31.0078 230.573 30.9997 230.508 30.9836C230.398 30.9592 230.295 30.9127 230.204 30.847C230.112 30.7813 230.036 30.6977 229.978 30.6014C229.92 30.5067 229.881 30.4014 229.864 30.2916C229.846 30.1819 229.851 30.0697 229.877 29.9617C229.999 29.4541 230.062 28.9338 230.062 28.4116C230.062 28.056 230.034 27.701 229.978 27.3499C229.96 27.2399 229.964 27.1274 229.99 27.019C230.016 26.9106 230.063 26.8085 230.129 26.7184C230.194 26.6283 230.277 26.5521 230.372 26.4942C230.467 26.4363 230.573 26.3979 230.683 26.3811C230.904 26.348 231.129 26.4027 231.311 26.5337C231.492 26.6646 231.615 26.8613 231.653 27.0818C231.829 28.172 231.786 29.2862 231.529 30.3599C231.484 30.5454 231.378 30.7102 231.228 30.8278C231.078 30.9454 230.892 31.0087 230.701 31.0075H230.707ZM228.031 23.3711C227.839 23.3744 227.652 23.3116 227.501 23.1933C226.764 22.6218 225.913 22.2146 225.006 21.9988L224.828 21.9564L224.563 21.8953C224.36 21.8489 224.181 21.7291 224.061 21.5587C223.94 21.3884 223.887 21.1796 223.911 20.9724C223.935 20.7651 224.035 20.5741 224.191 20.4358C224.347 20.2975 224.548 20.2218 224.757 20.2231C224.824 20.223 224.891 20.2311 224.956 20.247L225.048 20.2682L225.393 20.3505C226.535 20.6193 227.605 21.1327 228.53 21.8555C228.632 21.9331 228.716 22.0334 228.773 22.1485C228.831 22.2636 228.861 22.3904 228.861 22.5191C228.863 22.7114 228.8 22.8986 228.681 23.0499C228.604 23.1489 228.505 23.2291 228.393 23.2847C228.28 23.3403 228.157 23.3698 228.031 23.3711ZM161.55 22.6146C161.481 22.6149 161.412 22.6068 161.345 22.5907C161.128 22.5367 160.94 22.3986 160.824 22.2066C160.708 22.0146 160.672 21.7844 160.725 21.5662L161.573 18.0652C161.628 17.8481 161.766 17.6611 161.957 17.5445C162.147 17.4278 162.376 17.3908 162.594 17.4414C162.781 17.4855 162.946 17.5919 163.064 17.7429C163.181 17.894 163.244 18.0807 163.241 18.2722C163.241 18.3373 163.234 18.4022 163.22 18.466C163.088 18.9968 162.955 19.5277 162.825 20.0877C162.677 20.7035 162.523 21.3273 162.369 21.967C162.325 22.1516 162.221 22.316 162.072 22.4336C161.923 22.5511 161.739 22.6149 161.55 22.6146ZM219.332 20.6133C219.265 20.6132 219.198 20.6052 219.133 20.5894L216.19 19.8834L215.633 19.7507C215.432 19.7019 215.256 19.5812 215.138 19.4113C215.02 19.2415 214.968 19.0343 214.992 18.8289C215.016 18.6234 215.115 18.4339 215.269 18.2962C215.423 18.1584 215.622 18.0819 215.829 18.0811C215.895 18.0801 215.961 18.0873 216.025 18.1023L217.842 18.5376L219.528 18.9411C219.714 18.9855 219.88 19.0919 219.998 19.2428C220.116 19.3937 220.179 19.5802 220.178 19.7719C220.177 19.8363 220.169 19.9005 220.154 19.963C220.11 20.1483 220.005 20.3134 219.856 20.4315C219.707 20.5495 219.522 20.6136 219.332 20.6133ZM210.393 18.4686C210.326 18.4686 210.26 18.4605 210.195 18.4447L209.837 18.3598L206.697 17.6086C206.494 17.5622 206.315 17.4424 206.195 17.272C206.074 17.1017 206.021 16.8929 206.045 16.6857C206.069 16.4784 206.169 16.2874 206.325 16.1491C206.481 16.0108 206.682 15.9351 206.891 15.9364C206.957 15.9364 207.023 15.9444 207.087 15.9603L209.052 16.4301L210.59 16.7991C210.776 16.8431 210.942 16.9493 211.06 17.1003C211.178 17.2514 211.241 17.4381 211.239 17.6299C211.239 17.6934 211.231 17.7568 211.215 17.8183C211.172 18.0039 211.067 18.1692 210.918 18.2874C210.769 18.4055 210.584 18.4694 210.393 18.4686ZM201.46 16.3293C201.393 16.3295 201.327 16.3215 201.262 16.3054L198.491 15.6391L197.759 15.4666C197.539 15.4141 197.348 15.2768 197.229 15.0844C197.152 14.9555 197.112 14.8087 197.11 14.6589C197.109 14.5091 197.147 14.3617 197.221 14.2315C197.295 14.1013 197.403 13.9931 197.532 13.9177C197.661 13.8423 197.808 13.8025 197.958 13.8024C198.024 13.8023 198.09 13.8103 198.154 13.8263L201.195 14.5535L201.654 14.6677C201.841 14.7088 202.008 14.8126 202.127 14.9618C202.247 15.111 202.312 15.2966 202.312 15.4879C202.312 15.5525 202.303 15.6169 202.285 15.679C202.241 15.8647 202.136 16.0301 201.986 16.1482C201.836 16.2663 201.651 16.3302 201.46 16.3293ZM192.522 14.1872C192.454 14.187 192.387 14.179 192.321 14.1634L190.645 13.7599L188.826 13.3219C188.716 13.2969 188.613 13.2502 188.522 13.1845C188.431 13.1189 188.354 13.0357 188.296 12.9397C188.237 12.8453 188.198 12.74 188.18 12.6301C188.163 12.5202 188.168 12.408 188.195 12.3C188.239 12.1154 188.344 11.9509 188.492 11.833C188.641 11.715 188.825 11.6505 189.014 11.6497C189.082 11.6497 189.15 11.6577 189.216 11.6736L190.465 11.9762L192.71 12.5071C192.896 12.5506 193.062 12.6565 193.18 12.8071C193.297 12.9577 193.36 13.144 193.357 13.3352C193.357 13.3995 193.35 13.4635 193.336 13.5263C193.294 13.7121 193.191 13.8783 193.044 13.9982C192.896 14.1181 192.712 14.1847 192.522 14.1872ZM163.806 13.7015C163.693 13.7013 163.581 13.6787 163.477 13.6352C163.27 13.5478 163.107 13.3821 163.022 13.1741C162.937 12.9662 162.938 12.733 163.024 12.5257C163.549 11.2855 164.368 10.1922 165.41 9.3405C165.496 9.27014 165.595 9.21741 165.701 9.18532C165.807 9.15324 165.919 9.14244 166.029 9.15353C166.139 9.16463 166.246 9.1974 166.344 9.24998C166.442 9.30256 166.528 9.37391 166.598 9.45994C166.722 9.60918 166.789 9.79697 166.789 9.9908C166.789 10.115 166.762 10.2376 166.709 10.35C166.656 10.4625 166.58 10.5618 166.484 10.6411H166.46C165.651 11.3209 165.015 12.1833 164.604 13.1574C164.543 13.3192 164.434 13.4583 164.291 13.5556C164.148 13.653 163.979 13.7039 163.806 13.7015ZM183.584 12.0426C183.517 12.0428 183.45 12.0348 183.385 12.0187L182.515 11.809L179.885 11.1799C179.776 11.1553 179.672 11.1091 179.581 11.0439C179.49 10.9787 179.413 10.8959 179.355 10.8004C179.238 10.6079 179.202 10.3771 179.254 10.158C179.297 9.97248 179.402 9.80712 179.551 9.68899C179.701 9.57086 179.886 9.50695 180.076 9.50772C180.143 9.50811 180.21 9.51612 180.275 9.53161L183.775 10.3704C183.961 10.414 184.127 10.5203 184.245 10.6714C184.362 10.8226 184.425 11.0095 184.422 11.2012C184.421 11.2654 184.414 11.3295 184.4 11.3923C184.357 11.5765 184.252 11.7406 184.104 11.8585C183.956 11.9764 183.773 12.0412 183.584 12.0426ZM174.643 9.8979C174.577 9.89754 174.511 9.89042 174.447 9.87667L173.771 9.71476C173.222 9.57939 172.691 9.44933 172.18 9.33254C171.813 9.24535 171.439 9.18941 171.063 9.16532C170.839 9.15088 170.63 9.04798 170.482 8.87923C170.334 8.71048 170.259 8.48972 170.273 8.26551C170.288 8.0413 170.39 7.832 170.559 7.68366C170.727 7.53533 170.948 7.4601 171.172 7.47453C171.645 7.50439 172.114 7.57454 172.575 7.68422L174.009 8.03193L174.836 8.22835C175.022 8.2719 175.188 8.37775 175.306 8.52836C175.423 8.67897 175.486 8.86531 175.483 9.05649C175.484 9.12183 175.476 9.18693 175.46 9.25025C175.416 9.43419 175.311 9.59801 175.163 9.71546C175.015 9.8329 174.832 9.89715 174.643 9.8979Z" fill="#006DF3"/>
<path d="M190.91 55.1908C189.86 55.9152 188.695 56.4539 187.463 56.7833C186.32 57.1248 185.104 57.1331 183.957 56.8073C182.809 56.4815 181.779 55.8351 180.985 54.9439C180.073 53.9795 179.462 52.7072 179.15 51.127C178.839 49.505 178.905 47.8327 179.344 46.2405C179.937 44.0809 181.041 42.0961 182.563 40.4541C184.164 38.6598 185.887 37.4503 187.731 36.8257C189.574 36.201 191.235 36.0834 192.713 36.4727C193.85 36.7788 194.885 37.3825 195.712 38.2219C196.632 39.1736 197.298 40.3421 197.647 41.6194L199.103 38.7739L202.577 39.687L196.346 52.0242C195.479 53.7415 195.02 54.6944 194.967 54.8908C194.921 55.0613 194.912 55.2395 194.939 55.4138C194.967 55.5881 195.032 55.7545 195.129 55.9021C195.224 56.0596 195.349 56.1967 195.498 56.3056C195.646 56.4144 195.814 56.4929 195.993 56.5365C196.681 56.7135 197.686 56.5551 199.01 56.0614C200.798 55.3855 202.385 54.2657 203.621 52.8072C204.909 51.3539 205.839 49.6197 206.339 47.7428C206.91 45.6052 206.887 43.3521 206.273 41.2265C205.66 39.05 204.402 37.1035 202.5 35.3871C200.542 33.6484 198.195 32.4075 195.656 31.7693C192.753 30.9702 189.69 30.9501 186.776 31.7109C183.896 32.4671 181.304 34.0603 179.328 36.2895C177.253 38.5616 175.768 41.3086 175.001 44.2896C174.163 47.4747 174.133 50.3945 174.911 53.0488C175.696 55.7223 177.333 58.0656 179.572 59.7217C182.033 61.5742 184.841 62.9128 187.829 63.658C191.228 64.5551 194.226 64.7321 196.823 64.1888C199.42 63.6456 201.505 62.7095 203.078 61.3806L206.599 62.3069C205.579 63.4996 204.077 64.5905 202.091 65.5797C200.014 66.6009 197.767 67.2307 195.463 67.4377C193.029 67.6766 190.248 67.3837 187.121 66.5591C184.413 65.877 181.822 64.7955 179.431 63.3501C177.32 62.0866 175.501 60.3884 174.094 58.368C172.811 56.5281 171.95 54.4271 171.572 52.2153C171.129 49.4213 171.285 46.5649 172.028 43.8357C172.847 40.7107 174.33 37.7997 176.377 35.3021C178.885 32.2001 181.842 30.0979 185.246 28.9955C188.651 27.8931 192.429 27.8931 196.582 28.9955C199.799 29.8449 202.515 31.2658 204.73 33.2583C206.943 35.2518 208.512 37.8606 209.237 40.7514C209.906 43.3177 209.892 46.0143 209.198 48.5736C208.206 52.3392 206.002 55.335 202.587 57.5611C199.54 59.55 196.62 60.1747 193.827 59.435C193.073 59.2689 192.368 58.933 191.764 58.4529C191.305 58.0704 190.985 57.5469 190.854 56.9638C190.772 56.3739 190.791 55.7743 190.91 55.1908ZM182.878 47.4296C182.412 49.1991 182.47 50.6926 183.053 51.9101C183.637 53.1275 184.473 53.876 185.562 54.1556C186.376 54.3468 187.224 54.3313 188.03 54.1105C189.043 53.8451 189.997 53.3952 190.846 52.7833C191.894 52.025 192.792 51.0803 193.498 49.9963C194.291 48.8457 194.881 47.5672 195.243 46.2166C195.707 44.4471 195.63 42.9615 195.009 41.76C194.738 41.1924 194.344 40.6915 193.858 40.2929C193.371 39.8943 192.803 39.6077 192.193 39.4534C191.369 39.2338 190.501 39.2393 189.68 39.4694C188.704 39.7733 187.802 40.2748 187.028 40.9425C186.017 41.7839 185.154 42.7887 184.475 43.9153C183.771 45.0006 183.234 46.1852 182.881 47.4296H182.878Z" fill="#006DF3"/>
<path fill-rule="evenodd" clip-rule="evenodd" d="M167.264 55.4509C167.011 54.5055 166.574 53.6194 165.978 52.8435C165.382 52.0676 164.638 51.4172 163.791 50.9297C162.943 50.4421 162.007 50.1269 161.038 50.0023C160.068 49.8776 159.083 49.946 158.14 50.2034L69.0166 74.4557C67.118 74.9709 65.5012 76.2193 64.5213 77.9268C63.5415 79.6342 63.2786 81.6612 63.7904 83.5626C68.6374 101.63 81.3249 148.906 86.1746 167.03C86.4276 167.975 86.8646 168.861 87.4606 169.637C88.0565 170.413 88.7997 171.063 89.6475 171.551C90.4953 172.038 91.4309 172.354 92.4006 172.478C93.3704 172.603 94.3552 172.535 95.2985 172.277L184.424 148.025C186.323 147.51 187.94 146.261 188.92 144.554C189.899 142.846 190.162 140.819 189.65 138.918C184.811 120.85 172.124 73.5665 167.264 55.4509Z" fill="white"/>
<path fill-rule="evenodd" clip-rule="evenodd" d="M159.8 68.1491C159.546 67.2042 159.109 66.3186 158.512 65.5433C157.916 64.768 157.173 64.1182 156.325 63.6312C155.478 63.1441 154.542 62.8294 153.573 62.7051C152.603 62.5808 151.619 62.6494 150.676 62.9069C134.923 67.1935 97.5259 77.3728 81.8129 81.6435C79.9148 82.1593 78.2987 83.4079 77.3194 85.1154C76.34 86.8228 76.0775 88.8494 76.5894 90.7504C80.5667 105.577 89.6641 139.481 93.652 154.342C93.905 155.287 94.342 156.174 94.938 156.949C95.5339 157.725 96.2771 158.376 97.1249 158.863C97.9727 159.351 98.9083 159.666 99.878 159.791C100.848 159.915 101.833 159.847 102.776 159.59L171.636 140.853C173.535 140.337 175.152 139.087 176.131 137.377C177.11 135.668 177.371 133.64 176.857 131.738C172.88 116.911 163.788 83.0078 159.8 68.1491Z" fill="white"/>
<path d="M100.827 161.142C98.9074 161.139 97.042 160.504 95.5183 159.336C93.9946 158.167 92.8972 156.529 92.3952 154.674L75.3326 91.0795C74.7388 88.8458 75.0511 86.4677 76.2014 84.4636C77.3517 82.4594 79.2468 80.9916 81.4735 80.3801C93.4054 77.1365 117.839 70.4875 135.806 65.5983L150.342 61.6434C151.45 61.3422 152.607 61.2629 153.746 61.41C154.886 61.5571 155.985 61.9278 156.98 62.5009C157.976 63.0739 158.849 63.838 159.55 64.7494C160.25 65.6607 160.764 66.7015 161.062 67.812C165.039 82.676 174.147 116.574 178.124 131.401C178.718 133.634 178.406 136.012 177.257 138.016C176.107 140.02 174.212 141.488 171.986 142.1L103.115 160.85C102.369 161.048 101.599 161.146 100.827 161.142ZM152.625 63.942C152.081 63.9421 151.54 64.0135 151.015 64.1544L136.487 68.1093C118.523 72.9932 94.0868 79.6475 82.155 82.891C80.5915 83.321 79.2611 84.3521 78.4536 85.7595C77.6461 87.167 77.4268 88.8368 77.8436 90.4054L94.9062 153.997C95.2563 155.301 96.0263 156.452 97.0968 157.273C98.1673 158.095 99.4784 158.539 100.827 158.538C101.37 158.539 101.91 158.467 102.434 158.326L171.289 139.589C172.853 139.16 174.183 138.129 174.991 136.722C175.799 135.314 176.018 133.644 175.6 132.075C171.628 117.251 162.539 83.3449 158.543 68.4809C158.193 67.1771 157.424 66.0251 156.354 65.2036C155.284 64.382 153.973 63.9367 152.625 63.9367V63.942Z" fill="#006DF3"/>
<path d="M135.005 94.8539C131.121 94.8539 127.6 92.4651 126.035 88.749C123.914 83.69 126.109 77.8399 130.948 75.7058C132.117 75.1838 133.381 74.9126 134.661 74.9095C138.545 74.9095 142.066 77.2984 143.628 81.0144C145.749 86.0709 143.556 91.9209 138.717 94.055C137.549 94.5778 136.285 94.85 135.005 94.8539ZM134.671 77.5054C133.75 77.5057 132.839 77.6983 131.996 78.0708C128.448 79.6368 126.849 83.966 128.432 87.7218C129.588 90.4664 132.168 92.2341 135.005 92.2341C135.927 92.2354 136.838 92.0428 137.681 91.6688C141.228 90.1054 142.827 85.7762 141.244 82.0204C140.088 79.2891 137.508 77.5054 134.671 77.5054Z" fill="#006DF3"/>
<path d="M88.2428 130.886L86.1216 129.368L101.524 107.884C101.684 107.661 101.91 107.493 102.17 107.407C102.43 107.32 102.711 107.318 102.972 107.401L136.381 117.976L163.957 84.911L165.954 86.5779L137.832 120.314C137.667 120.512 137.446 120.657 137.199 120.729C136.951 120.802 136.688 120.798 136.442 120.72L103.097 110.167L88.2428 130.886Z" fill="#006DF3"/>
<path fill-rule="evenodd" clip-rule="evenodd" d="M294.805 53.7947C294.627 52.8302 294.26 51.9105 293.725 51.0887C293.191 50.2668 292.499 49.559 291.69 49.006C290.88 48.4531 289.97 48.0659 289.011 47.8669C288.051 47.6679 287.062 47.6609 286.1 47.8464L249.599 54.8591C247.671 55.228 245.967 56.3463 244.86 57.9694C243.754 59.5924 243.334 61.5882 243.694 63.52L250.304 99.1699C250.483 100.133 250.851 101.052 251.385 101.873C251.92 102.694 252.612 103.4 253.421 103.952C254.23 104.505 255.14 104.891 256.098 105.09C257.057 105.288 258.045 105.295 259.007 105.11L295.51 98.0949C297.435 97.7258 299.136 96.6099 300.242 94.9904C301.348 93.3709 301.77 91.3793 301.415 89.4499C299.649 79.9315 296.576 63.3502 294.805 53.7947Z" fill="#E3F0FF"/>
<path d="M261.663 100.481C259.624 100.483 257.648 99.7687 256.08 98.4632C254.512 97.1578 253.451 95.3434 253.08 93.3357L248.366 67.9022C247.952 65.6338 248.447 63.2933 249.746 61.3886C251.045 59.4839 253.041 58.1686 255.302 57.7283L281.799 52.6373C282.341 52.5323 282.891 52.4798 283.443 52.4807C285.2 52.478 286.916 53.0093 288.364 54.0043C290.279 55.3187 291.596 57.3392 292.026 59.6234C293.37 66.8644 295.404 77.8505 296.74 85.0622C297.155 87.3295 296.66 89.669 295.363 91.5735C294.066 93.478 292.072 94.794 289.812 95.2361L263.31 100.332C262.767 100.433 262.216 100.483 261.663 100.481ZM283.443 55.0926C283.056 55.0929 282.67 55.1293 282.29 55.2014L255.793 60.2844C254.207 60.5928 252.806 61.5148 251.894 62.8504C250.982 64.186 250.633 65.8275 250.922 67.4191L255.636 92.8526C255.939 94.4574 256.864 95.8773 258.208 96.8022C259.224 97.4959 260.426 97.866 261.655 97.8639C262.043 97.8639 262.431 97.8266 262.811 97.7524L289.306 92.6641C290.894 92.3551 292.296 91.4314 293.208 90.0936C294.12 88.7558 294.468 87.1119 294.176 85.5188C292.851 78.3097 290.806 67.3209 289.465 60.0826C289.16 58.4791 288.236 57.0606 286.893 56.1357C285.877 55.4453 284.676 55.0781 283.448 55.0819L283.443 55.0926Z" fill="#006DF3"/>
<path d="M274.468 87.8917C274.31 87.891 274.154 87.8623 274.006 87.8067C271.275 86.7689 266.346 84.5685 263.96 81.4816C260.818 77.6249 260.104 73.3435 262.143 70.575C263.302 68.9984 265.325 68.0216 267.428 68.0216C268.741 68.0196 270.026 68.4026 271.124 69.1231C271.755 68.2322 272.589 67.5056 273.558 67.004C274.527 66.5025 275.602 66.2407 276.692 66.2406C277.859 66.2284 279.006 66.5448 280.001 67.1537C282.918 68.9745 283.838 73.2161 282.345 77.962C281.285 81.7072 277.501 85.5798 275.348 87.5572C275.106 87.7745 274.792 87.8938 274.468 87.8917ZM267.428 70.6228C266.158 70.6228 264.904 71.2094 264.246 72.1198C262.973 73.8478 263.692 77.0276 265.993 79.8492L266.017 79.8784C267.383 81.6541 270.339 83.5307 274.189 85.0781C277.196 82.2115 279.248 79.374 279.858 77.2241C279.859 77.2117 279.859 77.1993 279.858 77.1869C280.956 73.7124 280.447 70.4928 278.623 69.3541C278.042 69.0102 277.378 68.833 276.703 68.8418C275.837 68.8389 274.99 69.1027 274.279 69.5974C273.568 70.0922 273.025 70.7939 272.726 71.6076C272.646 71.8126 272.516 71.994 272.347 72.1348C272.178 72.2756 271.977 72.3712 271.761 72.4126C271.545 72.454 271.322 72.4399 271.114 72.3715C270.905 72.3031 270.717 72.1827 270.567 72.0216C270.172 71.5801 269.688 71.2272 269.147 70.9861C268.606 70.745 268.02 70.6212 267.428 70.6228Z" fill="#006DF3"/>
<path fill-rule="evenodd" clip-rule="evenodd" d="M312.127 166.47C312.429 165.198 312.215 163.858 311.531 162.745C310.846 161.631 309.749 160.836 308.479 160.532L142.045 120.797C140.774 120.496 139.435 120.711 138.322 121.397C137.21 122.083 136.414 123.183 136.111 124.455L101.084 271.848C100.902 272.614 100.906 273.413 101.096 274.178C101.286 274.943 101.656 275.651 102.175 276.243C102.694 276.835 103.348 277.294 104.08 277.581C104.813 277.869 105.604 277.976 106.387 277.894C171.135 271.121 221.71 292.015 269.827 317.709C270.492 318.064 271.229 318.261 271.982 318.287C272.735 318.312 273.483 318.164 274.17 317.854C274.857 317.545 275.464 317.082 275.944 316.5C276.424 315.919 276.764 315.236 276.939 314.502C283.117 288.551 306.657 189.482 312.127 166.47Z" fill="#E6F1FF"/>
<path d="M131.881 223.267L130.522 228.976L234.353 253.738L235.712 248.029L131.881 223.267Z" fill="#86BCFF"/>
<path d="M135.351 206.337L133.992 212.046L260.179 242.139L261.537 236.43L135.351 206.337Z" fill="#86BCFF"/>
<path d="M138.788 190.642L137.429 196.351L263.616 226.445L264.974 220.736L138.788 190.642Z" fill="#86BCFF"/>
<path d="M142.161 174.329L140.802 180.038L266.989 210.131L268.347 204.423L142.161 174.329Z" fill="#86BCFF"/>
<path fill-rule="evenodd" clip-rule="evenodd" d="M218.229 158.738L150.095 142.488L149.271 145.952L217.404 162.199L218.229 158.738Z" fill="#86BCFF"/>
<path fill-rule="evenodd" clip-rule="evenodd" d="M42.0427 366.834L321.394 384.902L338.224 200.882L194.646 262.882L56.6102 171.032L42.0427 366.834Z" fill="#006AEC"/>
<path fill-rule="evenodd" clip-rule="evenodd" d="M42 367.5L194.643 262.855L321 385.5L42 367.5Z" fill="#005DCF"/>
</g>
<defs>
<clipPath id="clip0_305_397">
<rect width="390" height="420" fill="white"/>
</clipPath>
</defs>
</svg>
