<svg width="143" height="114" viewBox="0 0 143 114" fill="none" xmlns="http://www.w3.org/2000/svg">
<g clip-path="url(#clip0_275_2)">
<path d="M35.625 28.4999C29.956 28.4999 24.5192 30.7519 20.5106 34.7605C16.502 38.7691 14.25 44.2059 14.25 49.8749C14.25 50.5048 14.5002 51.1089 14.9456 51.5543C15.391 51.9997 15.9951 52.2499 16.625 52.2499C17.2549 52.2499 17.859 51.9997 18.3044 51.5543C18.7498 51.1089 19 50.5048 19 49.8749C19 45.4657 20.7516 41.2371 23.8694 38.1193C26.9872 35.0015 31.2158 33.2499 35.625 33.2499C36.2549 33.2499 36.859 32.9997 37.3044 32.5543C37.7498 32.1089 38 31.5048 38 30.8749C38 30.2451 37.7498 29.641 37.3044 29.1956C36.859 28.7502 36.2549 28.4999 35.625 28.4999ZM141.431 19.4037L112.931 0.403691C112.543 0.148313 112.089 0.012207 111.625 0.012207C111.161 0.012207 110.707 0.148313 110.319 0.403691L83.125 18.5249L55.9313 0.403691C55.5808 0.176903 55.1767 0.0465152 54.7597 0.0256672C54.3428 0.00481921 53.9277 0.094248 53.5563 0.284941C53.1682 0.480462 52.8412 0.778721 52.6108 1.14724C52.3805 1.51576 52.2557 1.9404 52.25 2.37494V18.3824C47.4678 15.8534 42.1723 14.4468 36.7655 14.2692C31.3586 14.0915 25.9823 15.1476 21.0443 17.3573C16.1064 19.567 11.7366 22.8723 8.26633 27.0224C4.79608 31.1725 2.31656 36.0584 1.01587 41.3095C-0.284832 46.5606 -0.372543 52.039 0.759385 57.329C1.89131 62.6191 4.21315 67.5818 7.54877 71.8409C10.8844 76.1 15.1462 79.5434 20.0108 81.9101C24.8755 84.2767 30.2152 85.5044 35.625 85.4999C41.9107 85.5396 48.0929 83.8997 53.5325 80.7499L86.1888 113.311C86.4107 113.531 86.6739 113.705 86.9632 113.824C87.2526 113.942 87.5625 114.002 87.875 114C89.4533 114.071 91.0291 113.812 92.5019 113.24C93.9747 112.669 95.3123 111.797 96.4294 110.679C97.5466 109.562 98.4188 108.225 98.9905 106.752C99.5622 105.279 99.8209 103.703 99.75 102.125C99.7518 101.812 99.6919 101.503 99.5737 101.213C99.4555 100.924 99.2814 100.661 99.0613 100.439L86.8538 88.2549L111.625 71.7249L138.819 89.8462C139.176 90.0814 139.59 90.2159 140.017 90.2353C140.445 90.2547 140.869 90.1583 141.246 89.9564C141.623 89.7545 141.939 89.4545 142.159 89.0882C142.38 88.7218 142.498 88.3026 142.5 87.8749V21.3749C142.498 20.9838 142.399 20.5991 142.213 20.2552C142.026 19.9114 141.758 19.6188 141.431 19.4037ZM57 6.81619L80.75 22.6574V82.1512L66.5 67.7824C70.9219 60.2381 72.3979 51.3251 70.6441 42.758C68.8904 34.1909 64.0307 26.5749 57 21.3749V6.81619ZM35.625 80.7499C29.5185 80.7499 23.5492 78.9392 18.4718 75.5466C13.3944 72.154 9.4371 67.332 7.10024 61.6903C4.76339 56.0486 4.15196 49.8407 5.34328 43.8515C6.5346 37.8624 9.47515 32.361 13.7931 28.043C18.111 23.7251 23.6124 20.7845 29.6016 19.5932C35.5908 18.4019 41.7987 19.0133 47.4404 21.3502C53.082 23.687 57.9041 27.6443 61.2966 32.7217C64.6892 37.7991 66.5 43.7684 66.5 49.8749C66.5 53.9295 65.7014 57.9444 64.1498 61.6903C62.5982 65.4362 60.324 68.8399 57.4569 71.7069C54.5899 74.5739 51.1863 76.8481 47.4404 78.3997C43.6944 79.9513 39.6796 80.7499 35.625 80.7499V80.7499ZM95 103.075C94.9466 104.696 94.2789 106.236 93.1323 107.382C91.9856 108.529 90.4458 109.197 88.825 109.25L57.5225 77.9237C59.8092 76.1239 61.874 74.0591 63.6738 71.7724L95 103.075ZM109.25 67.6162L85.5 83.4337V22.6574L109.25 6.81619V67.6162ZM137.75 83.4337L114 67.6162V6.81619L137.75 22.6574V83.4337Z" fill="#1A1A1A"/>
</g>
<defs>
<clipPath id="clip0_275_2">
<rect width="142.5" height="114" fill="white"/>
</clipPath>
</defs>
</svg>
