<svg width="38" height="28" viewBox="0 0 38 28" fill="none" xmlns="http://www.w3.org/2000/svg">
<g clip-path="url(#clip0_246_2)">
<path d="M22.8493 27.684L37.5478 14.9834C37.5567 14.975 37.565 14.9658 37.5724 14.9559C37.6269 14.906 37.6773 14.8518 37.7232 14.7939L37.7396 14.7719C37.9086 14.5491 38 14.277 38 13.9972C38 13.7173 37.9086 13.4452 37.7396 13.2224L37.7204 13.2004C37.6763 13.1419 37.6267 13.0877 37.5724 13.0384L37.5478 13.0081L22.8439 0.315834C22.5825 0.0903275 22.2426 -0.0218889 21.8987 0.00387162C21.5548 0.0296321 21.2353 0.191259 21.0103 0.453197C20.7853 0.715135 20.6734 1.05593 20.6991 1.4006C20.7248 1.74528 20.886 2.0656 21.1474 2.29111L33.2065 12.6922H1.30184C0.95657 12.6922 0.625442 12.8297 0.3813 13.0744C0.137158 13.3191 0 13.6511 0 13.9972C0 14.3432 0.137158 14.6752 0.3813 14.9199C0.625442 15.1646 0.95657 15.3021 1.30184 15.3021H33.1983L21.1391 25.7087C21.0027 25.8184 20.8898 25.9545 20.807 26.1088C20.7242 26.2632 20.6733 26.4327 20.6573 26.6073C20.6413 26.7818 20.6606 26.9578 20.7139 27.1247C20.7673 27.2916 20.8536 27.4461 20.9678 27.5788C21.082 27.7115 21.2217 27.8198 21.3786 27.8973C21.5354 27.9747 21.7062 28.0197 21.8808 28.0295C22.0554 28.0393 22.2302 28.0138 22.3947 27.9544C22.5592 27.895 22.7101 27.8031 22.8384 27.684H22.8493Z" fill="black"/>
</g>
<defs>
<clipPath id="clip0_246_2">
<rect width="38" height="28" fill="white"/>
</clipPath>
</defs>
</svg>
