<svg width="124" height="114" viewBox="0 0 124 114" fill="none" xmlns="http://www.w3.org/2000/svg">
<g clip-path="url(#clip0_246_8)">
<path d="M87.7777 46.7875C87.5742 46.5489 87.3254 46.3526 87.0457 46.2097C86.7659 46.0669 86.4607 45.9803 86.1474 45.9549C85.834 45.9296 85.5188 45.9659 85.2196 46.0619C84.9203 46.1579 84.643 46.3116 84.4035 46.5144C84.1639 46.7171 83.9668 46.9648 83.8233 47.2434C83.6799 47.522 83.593 47.8261 83.5675 48.1381C83.5421 48.4502 83.5786 48.7642 83.6749 49.0622C83.7713 49.3602 83.9257 49.6364 84.1292 49.875L89.0415 55.7175C89.4495 56.1994 90.0329 56.5001 90.6634 56.5536C91.294 56.607 91.92 56.4088 92.4038 56.0025C92.8877 55.5962 93.1896 55.0152 93.2433 54.3871C93.2969 53.7591 93.0979 53.1356 92.69 52.6538L87.7777 46.7875ZM77.9531 35.1025C77.7511 34.8639 77.5039 34.6673 77.2256 34.5238C76.9473 34.3804 76.6434 34.2929 76.3312 34.2665C76.019 34.24 75.7046 34.275 75.406 34.3696C75.1073 34.4641 74.8303 34.6163 74.5908 34.8175C74.3512 35.0187 74.1538 35.2649 74.0097 35.542C73.8657 35.8192 73.7779 36.1219 73.7513 36.4328C73.7248 36.7438 73.7599 37.0569 73.8549 37.3544C73.9498 37.6518 74.1026 37.9277 74.3046 38.1662L79.2169 43.985C79.4386 44.25 79.7155 44.4638 80.0285 44.6115C80.3414 44.7591 80.6829 44.8371 81.0292 44.84C81.5929 44.8369 82.139 44.6444 82.5792 44.2938C82.819 44.0927 83.0165 43.8465 83.1607 43.5694C83.3048 43.2922 83.3927 42.9895 83.4193 42.6785C83.4459 42.3674 83.4106 42.0543 83.3156 41.7568C83.2205 41.4594 83.0676 41.1835 82.8654 40.945L77.9531 35.1025ZM29.0923 28.5C29.7247 28.5 30.3313 28.2498 30.7785 27.8044C31.2257 27.359 31.4769 26.7549 31.4769 26.125C31.4769 25.4951 31.2257 24.891 30.7785 24.4456C30.3313 24.0002 29.7247 23.75 29.0923 23.75H20.5077C19.8753 23.75 19.2687 24.0002 18.8215 24.4456C18.3743 24.891 18.1231 25.4951 18.1231 26.125C18.1231 26.7549 18.3743 27.359 18.8215 27.8044C19.2687 28.2498 19.8753 28.5 20.5077 28.5H29.0923ZM46.2615 28.5C46.894 28.5 47.5005 28.2498 47.9477 27.8044C48.3949 27.359 48.6462 26.7549 48.6462 26.125C48.6462 25.4951 48.3949 24.891 47.9477 24.4456C47.5005 24.0002 46.894 23.75 46.2615 23.75H37.6769C37.0445 23.75 36.438 24.0002 35.9907 24.4456C35.5435 24.891 35.2923 25.4951 35.2923 26.125C35.2923 26.7549 35.5435 27.359 35.9907 27.8044C36.438 28.2498 37.0445 28.5 37.6769 28.5H46.2615ZM122.879 46.645L112.077 33.8675C111.875 33.6287 111.628 33.4319 111.35 33.2884C111.071 33.1448 110.767 33.0573 110.455 33.0308C110.143 33.0044 109.828 33.0395 109.53 33.1341C109.231 33.2288 108.954 33.3811 108.715 33.5825C107.26 34.7982 105.38 35.3886 103.488 35.2238C101.597 35.059 99.8483 34.1525 98.6277 32.7038C97.4071 31.255 96.8143 29.3827 96.9798 27.4986C97.1452 25.6146 98.0554 23.8732 99.51 22.6575C99.7515 22.4581 99.9511 22.2133 100.097 21.9369C100.244 21.6606 100.334 21.3583 100.363 21.0472C100.391 20.7361 100.358 20.4224 100.265 20.1241C100.172 19.8258 100.021 19.5487 99.82 19.3088L89.0892 6.53125C88.2745 5.57386 87.1124 4.97653 85.8569 4.86972C84.6014 4.76292 83.3544 5.15534 82.3885 5.96125L67.1985 18.6437L66.7692 19V4.75C66.7692 3.49022 66.2668 2.28204 65.3724 1.39124C64.478 0.500445 63.2649 0 62 0L42.9231 0C42.2906 0 41.6841 0.250223 41.2369 0.695621C40.7897 1.14102 40.5385 1.74511 40.5385 2.375C40.5385 4.26467 39.7848 6.07694 38.4431 7.41314C37.1015 8.74933 35.2819 9.5 33.3846 9.5C31.4873 9.5 29.6677 8.74933 28.3261 7.41314C26.9845 6.07694 26.2308 4.26467 26.2308 2.375C26.2308 1.74511 25.9795 1.14102 25.5323 0.695621C25.0851 0.250223 24.4786 0 23.8462 0L4.76923 0C3.50435 0 2.29128 0.500445 1.39688 1.39124C0.502471 2.28204 0 3.49022 0 4.75L0 21.375C0.0105176 23.1326 0.672964 24.8244 1.86 26.125C0.672964 27.4256 0.0105176 29.1174 0 30.875L0 99.75C0 101.01 0.502471 102.218 1.39688 103.109C2.29128 104 3.50435 104.5 4.76923 104.5H26.2308C26.8632 104.5 27.4697 104.25 27.9169 103.804C28.3641 103.359 28.6154 102.755 28.6154 102.125C28.6154 101.495 28.3641 100.891 27.9169 100.446C27.4697 100 26.8632 99.75 26.2308 99.75H4.76923V30.875C4.76923 30.2451 5.02047 29.641 5.46767 29.1956C5.91487 28.7502 6.52141 28.5 7.15385 28.5H11.9231C12.5555 28.5 13.1621 28.2498 13.6093 27.8044C14.0565 27.359 14.3077 26.7549 14.3077 26.125C14.3077 25.4951 14.0565 24.891 13.6093 24.4456C13.1621 24.0002 12.5555 23.75 11.9231 23.75H7.15385C6.52141 23.75 5.91487 23.4998 5.46767 23.0544C5.02047 22.609 4.76923 22.0049 4.76923 21.375V4.75H21.7C22.2473 7.43444 23.7096 9.84788 25.8391 11.5814C27.9686 13.3149 30.6343 14.2619 33.3846 14.2619C36.1349 14.2619 38.8007 13.3149 40.9302 11.5814C43.0596 9.84788 44.5219 7.43444 45.0692 4.75H62V21.375C62 22.0049 61.7488 22.609 61.3016 23.0544C60.8544 23.4998 60.2478 23.75 59.6154 23.75H54.8462C54.2137 23.75 53.6072 24.0002 53.16 24.4456C52.7128 24.891 52.4615 25.4951 52.4615 26.125C52.4615 26.7549 52.7128 27.359 53.16 27.8044C53.6072 28.2498 54.2137 28.5 54.8462 28.5H55.3946L11.1123 65.5025C10.6328 65.9046 10.2377 66.3969 9.94939 66.9512C9.66111 67.5056 9.48536 68.1111 9.43221 68.7331C9.37906 69.3551 9.44954 69.9815 9.63962 70.5764C9.82971 71.1712 10.1357 71.723 10.54 72.2L21.2946 84.9775C21.4965 85.2163 21.7436 85.4131 22.0219 85.5566C22.3002 85.7002 22.6042 85.7877 22.9165 85.8142C23.2287 85.8406 23.5432 85.8055 23.8418 85.7109C24.1405 85.6162 24.4174 85.4639 24.6569 85.2625C26.1171 84.0989 27.9766 83.551 29.8373 83.7361C31.6981 83.9212 33.4121 84.8246 34.6123 86.2528C35.8125 87.6811 36.4035 89.5206 36.2587 91.3775C36.1139 93.2343 35.2449 94.9609 33.8377 96.1875C33.598 96.3886 33.4004 96.6347 33.2562 96.9119C33.1121 97.189 33.0242 97.4918 32.9976 97.8028C32.9711 98.1138 33.0063 98.427 33.1013 98.7244C33.1964 99.0219 33.3494 99.2977 33.5515 99.5362L44.3062 112.314C44.7569 112.846 45.3194 113.272 45.954 113.564C46.5886 113.855 47.2797 114.004 47.9785 114C49.0958 113.996 50.176 113.6 51.0308 112.884L99.7962 72.1288C101.125 70.9909 101.976 69.3973 102.181 67.6637H102.538C104.221 67.6659 105.851 67.0772 107.141 66.0013L122.331 53.3188C123.289 52.5106 123.889 51.3585 124 50.1125C124.051 49.4895 123.979 48.8625 123.787 48.2675C123.594 47.6725 123.286 47.1211 122.879 46.645ZM104.041 62.3913C103.801 62.5926 103.524 62.745 103.226 62.8396C102.927 62.9343 102.613 62.9694 102.3 62.9429C101.988 62.9164 101.684 62.8289 101.406 62.6854C101.127 62.5418 100.88 62.345 100.678 62.1063L97.6262 58.4725C97.2214 57.9875 96.6398 57.6825 96.0092 57.6246C95.3787 57.5667 94.7508 57.7606 94.2638 58.1637C93.7769 58.5669 93.4706 59.1462 93.4125 59.7742C93.3544 60.4022 93.5491 61.0275 93.9538 61.5125L97.03 65.1462C97.2312 65.3852 97.3833 65.6613 97.4774 65.9588C97.5715 66.2563 97.6058 66.5693 97.5785 66.88C97.5261 67.5072 97.2259 68.0881 96.7439 68.495L47.9546 109.25L38.5831 98.1113C40.3007 95.9685 41.2209 93.2998 41.1875 90.5582C41.1541 87.8166 40.1692 85.1709 38.3999 83.0703C36.6306 80.9697 34.186 79.5436 31.481 79.0341C28.776 78.5245 25.9773 78.963 23.56 80.275L14.3077 69.1363L62.9538 28.5C63.1948 28.3 63.473 28.1494 63.7725 28.0566C64.072 27.9639 64.387 27.9309 64.6993 27.9596C65.0117 27.9883 65.3152 28.078 65.5927 28.2238C65.8701 28.3695 66.116 28.5683 66.3162 28.8088L69.3685 32.4425C69.5927 32.7106 69.8734 32.9262 70.1908 33.074C70.5081 33.2217 70.8543 33.2981 71.2046 33.2975C71.7648 33.2919 72.3051 33.0901 72.7308 32.7275C72.9705 32.5264 73.1681 32.2803 73.3122 32.0031C73.4564 31.726 73.5442 31.4232 73.5708 31.1122C73.5974 30.8012 73.5622 30.488 73.4671 30.1906C73.3721 29.8931 73.2191 29.6173 73.0169 29.3787L69.9646 25.745C69.7625 25.5065 69.6095 25.2306 69.5144 24.9332C69.4194 24.6357 69.3841 24.3226 69.4107 24.0115C69.4373 23.7005 69.5252 23.3978 69.6693 23.1206C69.8135 22.8435 70.011 22.5973 70.2508 22.3963L85.4408 9.5L94.8362 20.6387C93.1276 22.7799 92.2134 25.4428 92.2482 28.1776C92.283 30.9124 93.2645 33.5514 95.0269 35.6488C96.7948 37.7487 99.2376 39.1751 101.941 39.6858C104.644 40.1966 107.442 39.7604 109.859 38.4513L119.231 49.685L104.041 62.3913Z" fill="#1A1A1A"/>
</g>
<defs>
<clipPath id="clip0_246_8">
<rect width="124" height="114" fill="white"/>
</clipPath>
</defs>
</svg>
