<svg width="392" height="397" viewBox="0 0 392 397" fill="none" xmlns="http://www.w3.org/2000/svg">
<path opacity="0.1" d="M196 396.995C304.248 396.995 392 376.948 392 352.219C392 327.49 304.248 307.443 196 307.443C87.7522 307.443 0 327.49 0 352.219C0 376.948 87.7522 396.995 196 396.995Z" fill="#2F3D5B"/>
<path d="M126.001 364L126.165 276.087L198.077 265.976L197.914 353.889L126.001 364Z" fill="#A7D5EE"/>
<path d="M126.001 364L79.7015 338.798L79.8649 250.885L126.165 276.087L126.001 364Z" fill="#C6E8F7"/>
<path d="M126.165 276.087L79.8649 250.885L151.772 240.774L198.077 265.976L126.165 276.087Z" fill="#BAC1C6"/>
<path d="M165.441 94.9143L119.136 69.7124C127.303 74.1451 131.733 85.1399 131.708 97.7383C131.636 136.228 84.3821 162.829 84.3208 197.519L84.2749 221.286L130.58 246.488L130.621 222.721C130.687 188.031 177.941 161.44 178.013 122.94C178.033 110.342 173.583 99.347 165.441 94.9143Z" fill="#C6E8F7"/>
<path d="M162.21 26.3458C217.779 18.5325 255.106 51.2873 255.004 110.214C254.887 174.84 192.733 202.585 192.698 227.772V237.756L130.595 246.488L130.636 222.721C130.702 188.031 177.957 161.44 178.028 122.94C178.059 105.358 169.351 90.9004 154.115 93.0453C134.505 95.8029 130.478 116.322 130.437 136.284C130.437 140.564 130.437 144.838 130.774 149.051L63.9552 158.448C63.603 152.32 62.8833 146.702 62.8935 140.543C62.9956 78.777 105.197 34.3583 162.21 26.3458Z" fill="#A7D5EE"/>
<path d="M170.602 9.19213C155.754 1.10301 137.164 -1.8487 115.911 1.14387C58.8919 9.16149 16.6907 53.575 16.5784 115.352C16.5784 121.531 17.2827 127.133 17.6349 133.256L63.9399 158.458C63.5877 152.33 62.8681 146.712 62.8783 140.553C62.9957 78.7616 105.197 34.3583 162.21 26.3458C183.469 23.3532 202.059 26.3049 216.907 34.3838L170.602 9.19213Z" fill="#C6E8F7"/>
<path d="M280.04 113.146C274.676 112.696 269.878 113.988 269.832 122.848C269.832 129.068 270.312 139.772 274.349 140.472C276.141 140.789 280.372 140.048 280.372 140.048L280.219 147.478L292.071 145.512L288.421 135.534C288.421 135.534 297.721 114.616 280.04 113.146Z" fill="#E2857E"/>
<path d="M270.271 115.924L279.969 126.076C280.918 123.262 283.118 123.594 284.562 125.504C286.334 127.858 283.654 130.56 284.088 131.377C284.522 132.194 287.737 135.539 288.431 135.523C289.126 135.508 302.59 127.317 294.219 113.564C290.351 107.242 276.646 106.977 270.271 115.924Z" fill="#2A3756"/>
<path d="M279.963 102.564C279.688 106.808 282.168 109.632 286.032 109.877C289.896 110.122 291.826 107.467 292.101 103.238C292.377 99.01 290.57 95.6753 286.686 95.4302C282.801 95.1851 280.219 98.3206 279.963 102.564Z" fill="#2A3756"/>
<path d="M277.748 233.012C277.748 233.012 291.305 284.626 294.822 292.439C297.18 297.684 304.52 317.666 308.639 333.063L316.035 329.938C316.994 322.278 315.218 313.555 312.4 304.093C306.464 284.125 303.08 277.257 302.223 261.165C301.365 245.074 307.633 228.181 304.719 219.08C301.804 209.98 277.748 233.012 277.748 233.012Z" fill="#1D273F"/>
<path d="M299.951 357.795L323.436 350.074L319.934 342.138L309.144 343.083L298.487 353.761L299.951 357.795Z" fill="#2A3756"/>
<path d="M319.158 342.23L310.859 342.935L309.593 336.572L317.015 334.503L319.158 342.23Z" fill="white"/>
<path d="M309.593 336.572L317.015 334.503L316.035 329.938L308.639 333.063L309.593 336.572Z" fill="#E2857E"/>
<path d="M303.642 218.192C303.642 218.192 290.585 276.276 290.059 281.25C289.534 286.224 292.821 295.728 290.059 312.805C288.692 321.338 286.732 330.387 285.113 337.317L277.095 337.721C276.687 322.845 275.977 296.749 275.88 290.698C275.747 282.113 269.245 230.576 269.245 230.576C269.245 230.576 298.731 206.278 303.642 218.192Z" fill="#2A3756"/>
<path d="M260.501 357.974L285.205 358.761L284.629 350.1L274.165 347.296L260.501 353.684V357.974Z" fill="#2A3756"/>
<path d="M283.868 349.921L275.829 347.74L276.814 341.326L284.491 341.929L283.868 349.921Z" fill="white"/>
<path d="M276.814 341.326L284.491 341.929L285.134 337.302L277.115 337.705L276.814 341.326Z" fill="#E2857E"/>
<path d="M277.233 144.353L314.32 135.258C314.32 135.258 321.854 158.749 303.188 159.867C284.522 160.986 277.233 144.353 277.233 144.353Z" fill="#FFCD00"/>
<path d="M287.365 143.173C292.698 143.505 297.619 149.077 301.059 159.152C303.698 177.333 313.151 245.201 313.151 245.201L263.375 240.769C263.375 240.769 265.927 152.376 275.472 145.002C279.24 143.475 283.312 142.849 287.365 143.173Z" fill="#FFCD00"/>
<path d="M277.218 238.159L276.406 244.839L280.724 245.927L283.103 240.345L277.218 238.159Z" fill="#E2857E"/>
<path d="M273.839 249.925C274.058 245.436 276.498 241.908 279.285 242.045C280.113 242.101 280.897 242.444 281.5 243.016C282.153 243.598 281.582 247.157 281.209 248.664C281.007 249.5 280.906 250.357 280.908 251.217C280.856 252.924 281.296 254.61 282.174 256.074C281.189 257.504 279.877 258.351 278.483 258.285C275.691 258.162 273.609 254.409 273.839 249.925Z" fill="#E2857E"/>
<path d="M230.121 163.223L232.372 171.077L230.004 169.907C230.004 169.907 228.386 167.354 228.085 166.333C227.784 165.311 230.05 163.396 230.05 163.396C230.05 163.396 226.839 164.928 226.604 164.029C226.446 163.427 228.998 161.333 229.458 161.134C229.917 160.935 232.801 161.022 232.801 161.022C232.801 161.022 235.532 162.457 236.374 163.825C237.216 165.194 238.099 167.512 238.926 168.733C239.753 169.953 241.442 172.971 241.442 172.971L237.915 174.687L230.718 162.584L230.121 163.223Z" fill="#E2857E"/>
<path d="M234.388 176.909L230.351 158.933L227.886 159.086L231.923 177.062C232.081 177.767 232.52 178.216 232.975 178.185L235.44 178.032C234.991 178.058 234.552 177.613 234.388 176.909Z" fill="#0B0F14"/>
<path opacity="0.6" d="M227.886 143.286C230.259 142.193 232.867 144.348 233.71 148.091C234.552 151.834 233.311 155.751 230.938 156.854C228.565 157.957 225.956 155.797 225.109 152.049C224.262 148.301 225.512 144.384 227.886 143.286Z" fill="white"/>
<path d="M227.488 141.519C224.497 142.898 222.93 147.841 223.991 152.565C224.935 156.778 227.651 159.387 230.351 158.933L234.388 176.909C234.577 177.736 235.154 178.211 235.68 177.966C236.205 177.721 236.476 176.863 236.292 176.035L232.24 158.054C234.618 156.175 235.761 151.794 234.792 147.575C233.771 142.857 230.484 140.145 227.488 141.519ZM230.938 156.839C228.559 157.932 225.956 155.782 225.109 152.034C224.262 148.285 225.512 144.373 227.886 143.27C230.259 142.167 232.867 144.333 233.71 148.076C234.552 151.819 233.311 155.756 230.938 156.854V156.839Z" fill="#151C28"/>
<path d="M226.39 141.325C225.916 141.356 225.452 141.476 225.022 141.677C222.026 143.056 220.464 147.999 221.526 152.718C222.424 156.732 224.93 159.29 227.498 159.132L229.963 158.974C227.411 159.137 224.895 156.579 223.991 152.565C222.93 147.841 224.502 142.898 227.488 141.519C227.918 141.32 228.382 141.202 228.856 141.172L226.39 141.325Z" fill="#0B0F14"/>
<path d="M241.846 172.527C241.846 172.527 257.469 186.54 262.364 185.406C267.259 184.273 278.346 159.137 278.346 159.137L272.317 200.098C272.317 200.098 268.831 204.148 259.976 202.453C251.12 200.757 236.354 179.36 236.354 179.36L241.846 172.527Z" fill="#FFCD00"/>
<path d="M237.277 168.641C237.277 168.641 234.695 166.532 234.062 166.031C233.429 165.531 231.51 161.195 230.489 161.645C229.468 162.094 229.468 163.687 231.203 166.925C232.939 170.163 232.592 172.542 234.654 173.564C236.125 174.335 237.506 175.267 238.773 176.342L241.447 172.987L237.277 168.641Z" fill="#E2857E"/>
</svg>
