<svg width="82" height="91" viewBox="0 0 82 91" fill="none" xmlns="http://www.w3.org/2000/svg">
<g clip-path="url(#clip0_347_11)">
<path d="M9.06348 58.733C11.6189 63.3832 15.3775 67.2607 19.9458 69.9596C24.5141 72.6584 29.7239 74.0793 35.0298 74.0734C37.0382 74.0749 39.0419 73.8776 41.0115 73.4843C36.8146 72.6177 32.8559 70.8498 29.4093 68.3028C25.9627 65.7559 23.1104 62.4907 21.0497 58.733" stroke="white" stroke-miterlimit="10"/>
<path d="M20.5511 31.1113C22.5524 27.1324 25.4253 23.6561 28.956 20.9413C32.4867 18.2264 36.5842 16.3429 40.9435 15.431C38.9764 15.0189 36.9715 14.8138 34.9617 14.8192C29.4858 14.8287 24.1197 16.3564 19.4597 19.2325C14.7998 22.1086 11.0285 26.2205 8.56494 31.1113" stroke="white" stroke-miterlimit="10"/>
<path d="M60.9733 58.733C58.9077 62.4913 56.0512 65.7566 52.6009 68.3034C49.1506 70.8502 45.1887 72.6178 40.9888 73.4843C42.9662 73.8765 44.9773 74.0738 46.9932 74.0734C52.2986 74.0769 57.5074 72.655 62.0753 69.9564C66.6431 67.2578 70.4022 63.3816 72.9595 58.733" stroke="white" stroke-miterlimit="10"/>
<path d="M73.4353 31.1114C70.9683 26.2137 67.1899 22.0973 62.5212 19.2207C57.8525 16.3441 52.4769 14.8204 46.9932 14.8193C44.976 14.8151 42.9637 15.0202 40.9888 15.4311C45.3481 16.343 49.4456 18.2265 52.9763 20.9414C56.5069 23.6562 59.3799 27.1324 61.3811 31.1114" stroke="white" stroke-miterlimit="10"/>
<path d="M61.4488 31.1113C59.4475 27.1324 56.5746 23.6561 53.0439 20.9413C49.5133 18.2265 45.4158 16.343 41.0564 15.431C36.6971 16.343 32.5996 18.2265 29.0689 20.9413C25.5383 23.6561 22.6654 27.1324 20.6641 31.1113" stroke="white" stroke-miterlimit="10"/>
<path d="M21.0269 58.733C23.0876 62.4907 25.9399 65.7559 29.3865 68.3028C32.8331 70.8498 36.7918 72.6177 40.9887 73.4843C45.1887 72.6178 49.1505 70.8502 52.6008 68.3034C56.0511 65.7566 58.9077 62.4913 60.9733 58.733" stroke="white" stroke-miterlimit="10"/>
<path d="M8.51948 50.7343H6.41227V46.3157H2.10721V50.7343H0V40.2203H2.10721V44.231H6.41227V40.2203H8.51948V50.7343Z" fill="white"/>
<path d="M21.0043 50.7343H18.7385L17.9001 48.4684H14.0256L13.1872 50.7343H10.9214L15.6569 40.4017C15.6832 40.3462 15.7251 40.2995 15.7774 40.2674C15.8296 40.2352 15.8901 40.2189 15.9515 40.2204H16.2007C16.2685 40.216 16.3358 40.2334 16.3929 40.2701C16.45 40.3068 16.4939 40.3609 16.518 40.4243L21.0043 50.7343ZM17.379 46.8823L16.8352 45.704L15.8609 43.8459L14.9319 45.7946L14.4107 46.8823H17.379Z" fill="white"/>
<path d="M71.5091 50.7343H69.2432L68.4276 48.4683H64.5757L63.76 50.7343H61.4941L66.2524 40.4016C66.2747 40.3479 66.3125 40.302 66.3609 40.2698C66.4093 40.2375 66.4661 40.2203 66.5243 40.2203H66.7962C66.8608 40.2172 66.9248 40.2355 66.978 40.2723C67.0312 40.3092 67.0709 40.3626 67.0907 40.4242L71.5091 50.7343ZM67.9744 46.8822L67.4306 45.7039L66.5469 43.8458L65.6179 45.7945L65.0968 46.8822H67.9744Z" fill="white"/>
<path d="M31.9479 50.7343H31.7213C31.674 50.7353 31.627 50.7256 31.5838 50.706C31.5407 50.6864 31.5025 50.6573 31.4721 50.621L26.9404 45.9306C26.9404 45.9306 25.6036 44.4577 25.4677 44.1858C25.4677 44.571 25.4677 45.5227 25.4677 46.0892V50.7343H23.4058V40.4697C23.4058 40.4035 23.432 40.3402 23.4788 40.2934C23.5255 40.2467 23.5889 40.2204 23.655 40.2204H23.8363C23.941 40.2189 24.0449 40.2382 24.1422 40.277C24.2394 40.3159 24.3279 40.3737 24.4027 40.447L29.8633 45.8173C30.1126 46.2025 29.7274 46.2931 29.8633 46.565C29.8633 46.1798 29.8633 45.2508 29.8633 44.6616V40.1298H31.9479V50.7343Z" fill="white"/>
<path d="M43.6169 45.4773C43.6542 46.1873 43.54 46.897 43.2817 47.5593C43.0235 48.2217 42.6272 48.8215 42.1192 49.3188C41.6112 49.8161 41.0032 50.1995 40.3355 50.4436C39.6678 50.6876 38.9558 50.7867 38.2469 50.7343H35.324C35.2952 50.7345 35.2667 50.7286 35.2404 50.7169C35.214 50.7053 35.1904 50.6882 35.1712 50.6668C35.1519 50.6454 35.1374 50.6201 35.1286 50.5927C35.1198 50.5653 35.1169 50.5363 35.1201 50.5077V40.4469C35.1164 40.4163 35.1198 40.3852 35.1299 40.3561C35.14 40.3269 35.1566 40.3005 35.1784 40.2787C35.2002 40.2568 35.2267 40.2403 35.2558 40.2302C35.285 40.2201 35.316 40.2167 35.3467 40.2204H38.5188C39.2197 40.1493 39.9276 40.2378 40.5895 40.4793C41.2513 40.7207 41.8499 41.1089 42.3404 41.6146C42.8309 42.1204 43.2005 42.7306 43.4216 43.3996C43.6426 44.0686 43.7094 44.7789 43.6169 45.4773ZM41.4644 45.4773C41.4644 43.3247 40.558 42.2597 38.3149 42.2597H37.2953V48.4684C37.2953 48.5044 37.3096 48.539 37.3351 48.5645C37.3606 48.59 37.3952 48.6043 37.4312 48.6043H38.3375C38.7568 48.6386 39.1786 48.5812 39.5735 48.4362C39.9684 48.2912 40.3271 48.0619 40.6245 47.7644C40.922 47.4669 41.1512 47.1083 41.2962 46.7134C41.4413 46.3184 41.4986 45.8967 41.4644 45.4773Z" fill="white"/>
<path d="M48.4431 50.7343H46.3359V40.2203H48.4431V50.7343Z" fill="white"/>
<path d="M59.7951 42.0331L58.209 43.0075C57.8238 42.2824 57.0308 42.1238 56.0791 42.1238C55.2156 42.159 54.3996 42.5286 53.8034 43.1543C53.2073 43.7801 52.8777 44.6131 52.8843 45.4774C52.8949 46.3381 53.2339 47.1623 53.8319 47.7815C54.43 48.4006 55.2419 48.7679 56.1018 48.8083C56.5446 48.8709 56.9961 48.801 57.3993 48.6074C57.8025 48.4139 58.1394 48.1053 58.3676 47.7206L59.999 48.7856C59.6453 49.4953 59.0811 50.0786 58.3836 50.4557C57.6862 50.8329 56.8893 50.9856 56.1018 50.893C55.394 50.8961 54.6927 50.7576 54.0393 50.4854C53.3859 50.2132 52.7936 49.813 52.2973 49.3082C51.801 48.8035 51.4109 48.2045 51.1498 47.5466C50.8887 46.8886 50.762 46.1851 50.7771 45.4774C50.7771 44.039 51.3469 42.6592 52.3618 41.6399C53.3767 40.6207 54.7541 40.0451 56.1924 40.0391C56.9259 39.9535 57.6679 40.0997 58.314 40.4573C58.9602 40.815 59.4781 41.3661 59.7951 42.0331Z" fill="white"/>
<path d="M81.9999 43.5513C81.9999 45.9758 80.3685 46.9955 78.1933 46.9955H75.9275V50.7343H73.8203V40.7868C73.8202 40.7224 73.8333 40.6586 73.8586 40.5993C73.8839 40.5401 73.921 40.4866 73.9676 40.4421C74.0142 40.3976 74.0694 40.363 74.1297 40.3405C74.1901 40.318 74.2544 40.3079 74.3188 40.311H78.4199C78.8724 40.2668 79.3291 40.3176 79.7608 40.4603C80.1924 40.6029 80.5895 40.8342 80.9266 41.1392C81.2637 41.4443 81.5332 41.8165 81.7181 42.2319C81.9029 42.6472 81.9989 43.0966 81.9999 43.5513ZM79.7341 43.5513C79.7341 42.6222 79.145 42.2144 78.216 42.2144H75.8822V44.9108H78.3293C79.3036 44.9562 79.8247 44.503 79.8247 43.5966L79.7341 43.5513Z" fill="white"/>
<path d="M24.4253 7.25102L21.5477 8.63324L19.5991 4.53189L20.3922 4.12402L21.9782 7.43229L24.0401 6.45794L24.4253 7.25102Z" fill="white"/>
<path d="M29.3195 5.77809L26.17 6.6618L24.9238 2.26589L27.9827 1.42749L28.2319 2.28855L25.9661 2.87769L26.2153 3.73875L28.4812 3.10428L28.7077 3.96534L26.5552 4.53182L26.8045 5.48352L29.0703 4.84905L29.3195 5.77809Z" fill="white"/>
<path d="M35.7546 2.10731L36.8422 0.113281H37.7259L38.0884 4.64515H37.1821L37.0462 2.99102C37.0462 2.74177 37.0462 2.15262 37.0462 1.99401C37.0462 1.83539 36.6836 2.53783 36.593 2.78709L36.2531 3.30825H34.9389C34.803 3.059 34.1459 2.35656 34.0553 2.17528C34.0553 2.35656 34.0553 2.90038 34.1686 3.14964V4.84909H33.2849L32.9224 0.317216H33.806L35.3241 2.08465L35.7546 2.10731Z" fill="white"/>
<path d="M44.546 2.40189C44.546 3.87475 43.6396 4.66783 42.4387 4.66783C42.1478 4.65687 41.8626 4.58302 41.6029 4.45135C41.3431 4.31969 41.115 4.13333 40.9341 3.9051C40.7533 3.67687 40.624 3.41217 40.5552 3.12921C40.4864 2.84625 40.4796 2.55174 40.5355 2.26594C40.5355 0.793078 41.4418 0 42.62 0C42.9103 0.0151265 43.1942 0.0914813 43.4529 0.224053C43.7117 0.356625 43.9394 0.542418 44.1213 0.769237C44.3032 0.996056 44.435 1.25877 44.5082 1.54015C44.5814 1.82153 44.5943 2.1152 44.546 2.40189ZM43.5943 2.40189C43.5943 1.47286 43.2091 0.929034 42.5747 0.906375C41.9403 0.883715 41.4871 1.38222 41.4644 2.31125C41.4418 3.24029 41.8496 3.76145 42.4841 3.78411C43.1185 3.80677 43.5717 3.30827 43.5943 2.40189Z" fill="white"/>
<path d="M50.0747 5.4382L49.259 5.30224L47.9675 2.60578C47.9675 2.42451 47.7862 2.17525 47.7409 2.0393C47.6956 1.90334 47.7409 2.78706 47.605 3.03631L47.3104 5.00767L46.4268 4.87172L47.0838 0.339844H47.9675L49.1911 2.96833C49.2848 3.15229 49.368 3.34143 49.4403 3.53481C49.4403 3.35354 49.4403 2.78706 49.5762 2.5378L49.8481 0.793031L50.7318 0.928987L50.0747 5.4382Z" fill="white"/>
<path d="M56.3962 4.75852C56.311 5.04979 56.1682 5.32097 55.9762 5.55599C55.7843 5.79101 55.5471 5.98508 55.2787 6.12668C55.0103 6.26827 54.7162 6.35452 54.4138 6.38029C54.1115 6.40606 53.8071 6.37083 53.5186 6.2767L52.1138 5.89149L53.4959 1.54089L54.8781 1.9261C55.1833 1.97892 55.4724 2.10057 55.7236 2.28182C55.9748 2.46307 56.1813 2.69915 56.3277 2.97216C56.474 3.24516 56.5562 3.54791 56.5681 3.85743C56.5799 4.16696 56.5212 4.47511 56.3962 4.75852ZM55.4898 4.53193C55.5742 4.36174 55.6169 4.17397 55.6146 3.98405C55.6123 3.79412 55.565 3.60746 55.4765 3.43938C55.388 3.2713 55.261 3.1266 55.1057 3.01716C54.9505 2.90772 54.7715 2.83666 54.5835 2.80982L54.1303 2.67386L53.3373 5.34767L53.7678 5.48362C53.9423 5.5584 54.1315 5.59234 54.321 5.58287C54.5106 5.57339 54.6955 5.52074 54.8616 5.42894C55.0277 5.33714 55.1706 5.2086 55.2795 5.05315C55.3884 4.89769 55.4603 4.71942 55.4898 4.53193Z" fill="white"/>
<path d="M60.4066 9.0638L57.5063 7.59094L59.5909 3.53491L62.4005 4.98511L61.9927 5.77819L59.9761 4.73586L59.6362 5.4383L61.5395 6.45797L61.177 7.31903L59.2737 6.29935L58.7752 7.27371L60.8598 8.3387L60.4066 9.0638Z" fill="white"/>
<path d="M16.7899 80.2822C16.652 80.6065 16.4403 80.8942 16.1717 81.1224C15.9031 81.3506 15.585 81.5129 15.2426 81.5966C14.9003 81.6803 14.5431 81.6829 14.1995 81.6043C13.856 81.5257 13.5355 81.3681 13.2636 81.1439C12.9916 80.9197 12.7757 80.6352 12.633 80.3129C12.4903 79.9906 12.4247 79.6395 12.4415 79.2875C12.4583 78.9354 12.557 78.5922 12.7297 78.2849C12.9024 77.9777 13.1444 77.715 13.4365 77.5177C13.5744 77.1934 13.7861 76.9057 14.0547 76.6775C14.3233 76.4493 14.6414 76.287 14.9838 76.2033C15.3261 76.1197 15.6833 76.117 16.0268 76.1956C16.3704 76.2742 16.6909 76.4318 16.9628 76.656C17.2348 76.8802 17.4507 77.1647 17.5934 77.487C17.7361 77.8093 17.8016 78.1604 17.7848 78.5124C17.7681 78.8645 17.6694 79.2078 17.4967 79.515C17.3239 79.8222 17.0819 80.0849 16.7899 80.2822ZM15.9969 79.6477C16.6313 78.8773 16.6313 78.1295 16.1101 77.699C15.589 77.2685 14.8639 77.3818 14.2295 78.1522C13.5951 78.9226 13.5951 79.6704 14.2295 80.1009C14.8639 80.5314 15.3624 80.4181 15.9969 79.6477Z" fill="white"/>
<path d="M21.0268 84.0662C20.9133 84.2518 20.7619 84.4112 20.5824 84.5339C20.4029 84.6567 20.1995 84.7401 19.9854 84.7787C19.7714 84.8172 19.5517 84.81 19.3406 84.7575C19.1296 84.705 18.932 84.6084 18.761 84.4741L16.8804 83.2958L19.4861 79.1492L21.3894 80.3275C22.205 80.826 22.4769 81.5511 22.0238 82.2535C21.9275 82.4203 21.7887 82.5585 21.6215 82.6541C21.4543 82.7496 21.2647 82.7991 21.0721 82.7973C21.1984 82.9869 21.262 83.2114 21.2539 83.4391C21.2457 83.6668 21.1663 83.8861 21.0268 84.0662ZM20.1658 83.5451C20.3924 83.1825 20.3018 82.888 19.8939 82.6387L18.7837 81.9363L18.1266 83.0239L19.2368 83.7037C19.3051 83.7624 19.3854 83.8053 19.4722 83.8293C19.5589 83.8534 19.6499 83.858 19.7386 83.8429C19.8273 83.8277 19.9116 83.7932 19.9855 83.7417C20.0593 83.6902 20.1209 83.6231 20.1658 83.5451ZM21.0721 81.8003C21.2307 81.5284 21.0721 81.3018 20.8002 81.0752L19.758 80.4181L19.2595 81.2112L20.3471 81.891C20.7096 82.1175 20.9362 82.0269 21.0721 81.8003Z" fill="white"/>
<path d="M25.8076 86.4455C25.4225 87.2839 24.6294 87.6238 23.4059 87.0799C23.066 86.9419 22.7647 86.7234 22.5278 86.4431C22.291 86.1629 22.1258 85.8293 22.0464 85.4711L22.9527 85.1992C23.0212 85.4245 23.1377 85.6323 23.2942 85.8083C23.4506 85.9844 23.6433 86.1244 23.859 86.2189C24.4028 86.4681 24.7201 86.4228 24.856 86.0829C24.992 85.7431 24.856 85.6071 24.1536 85.0179C23.4512 84.4288 22.9527 83.9303 23.3606 83.0692C23.458 82.8693 23.5976 82.6928 23.7698 82.5519C23.9419 82.411 24.1426 82.3091 24.3579 82.2531C24.5732 82.1971 24.798 82.1884 25.017 82.2276C25.236 82.2668 25.4439 82.3529 25.6264 82.4801C25.9399 82.6082 26.2207 82.805 26.4481 83.056C26.6755 83.307 26.8438 83.6057 26.9406 83.9303L26.0116 84.2475C25.9497 84.0468 25.8474 83.8608 25.711 83.7011C25.5747 83.5413 25.4071 83.4111 25.2185 83.3185C24.7201 83.1146 24.4708 83.3185 24.3802 83.3185C24.2895 83.3185 24.3802 83.7943 25.0373 84.2702C25.6944 84.746 26.2608 85.4711 25.8076 86.4455Z" fill="white"/>
<path d="M30.4071 89.5271L27.0537 88.4848L28.5038 83.8396L31.7666 84.8593L31.4947 85.7656L29.2289 85.0632L28.9797 85.8563L31.2455 86.5814L30.9509 87.4878L28.6851 86.7853L28.3226 87.9183L30.747 88.666L30.4071 89.5271Z" fill="white"/>
<path d="M36.253 90.6374L35.1427 90.4335L34.5763 88.5527L33.6473 88.3715L33.3527 90.1162L32.3784 89.9576L33.2168 85.1085L35.4826 85.4937C35.7007 85.5089 35.913 85.5703 36.1056 85.6738C36.2981 85.7774 36.4664 85.9207 36.5993 86.0943C36.7321 86.2679 36.8266 86.4678 36.8762 86.6807C36.9259 86.8936 36.9297 87.1147 36.8874 87.3291C36.861 87.6419 36.7306 87.9367 36.517 88.1667C36.3035 88.3967 36.0191 88.5486 35.7092 88.5981L36.253 90.6374ZM35.8225 87.1705C35.8225 86.74 35.6639 86.5134 35.2334 86.4454L33.9645 86.2188L33.7606 87.4651L35.0294 87.6917C35.5052 87.805 35.7998 87.6464 35.8678 87.2158L35.8225 87.1705Z" fill="white"/>
<path d="M42.3707 86.1056L40.4221 90.932H39.4704L37.9297 85.9696H39.0173L39.833 88.8473C39.833 89.1193 39.9916 89.4818 40.0142 89.6631C40.0142 89.4818 40.1729 89.1419 40.2861 88.87L41.3058 86.1056H42.3707Z" fill="white"/>
<path d="M47.5823 90.6374H46.5174L46.0416 89.5951L44.2516 89.7311L43.957 90.8414H42.8921L44.3875 85.7883H45.3392L47.5823 90.6374ZM45.6337 88.7567L45.3165 87.8957C45.1806 87.6011 45.0673 87.3292 44.9993 87.1479C44.9588 87.409 44.8982 87.6666 44.818 87.9183L44.5688 88.8473L45.6337 88.7567Z" fill="white"/>
<path d="M51.3662 85.9016L49.984 86.1736L50.7317 90.0256L49.7801 90.2296L49.0097 86.3548L47.6276 86.6267L47.4463 85.6751L51.1849 84.95L51.3662 85.9016Z" fill="white"/>
<path d="M56.8039 85.7431C56.936 86.027 57.0079 86.3352 57.0149 86.6483C57.022 86.9613 56.9641 87.2725 56.8448 87.562C56.7256 87.8516 56.5477 88.1133 56.3222 88.3306C56.0968 88.548 55.8288 88.7162 55.535 88.8247C54.3115 89.2326 53.2692 88.6208 52.7028 87.1026C52.494 86.8142 52.3561 86.4805 52.3004 86.1288C52.2447 85.7771 52.2726 85.4172 52.3819 85.0783C52.4913 84.7394 52.6789 84.4311 52.9297 84.1783C53.1805 83.9255 53.4873 83.7353 53.8253 83.6233C54.1633 83.5112 54.523 83.4804 54.8751 83.5334C55.2272 83.5863 55.5619 83.7215 55.852 83.9279C56.1422 84.1344 56.3795 84.4064 56.5449 84.7217C56.7103 85.0371 56.799 85.387 56.8039 85.7431ZM55.8522 86.0603C55.535 85.1313 54.9006 84.7234 54.2435 84.95C53.5864 85.1766 53.3372 85.8337 53.6544 86.7854C53.9716 87.7371 54.5834 88.1223 55.2405 87.8957C55.8976 87.6691 56.1468 87.012 55.8522 86.1056V86.0603Z" fill="white"/>
<path d="M60.2481 86.8987L59.3418 87.3066L57.3252 82.7747L58.2315 82.3668L60.2481 86.8987Z" fill="white"/>
<path d="M65.709 83.9529L64.7347 84.5194L63.1033 83.4318L62.2423 83.9303L63.126 85.4711L62.2876 85.947L59.8179 81.7097L61.7891 80.554C61.9646 80.4198 62.1672 80.3254 62.3829 80.2776C62.5986 80.2298 62.8221 80.2296 63.0378 80.277C63.2536 80.3245 63.4564 80.4185 63.632 80.5524C63.8077 80.6864 63.952 80.857 64.055 81.0525C64.2537 81.2955 64.3624 81.5997 64.3624 81.9136C64.3624 82.2275 64.2537 82.5317 64.055 82.7746L65.709 83.9529ZM63.1713 81.687C63.1309 81.6078 63.0731 81.5387 63.0022 81.485C62.9313 81.4313 62.8492 81.3944 62.762 81.3769C62.6748 81.3595 62.5848 81.362 62.4987 81.3843C62.4126 81.4066 62.3327 81.4481 62.265 81.5057L61.1547 82.1628L61.7891 83.2505L62.8994 82.5934C63.0034 82.5654 63.0977 82.5096 63.1721 82.4318C63.2466 82.354 63.2983 82.2573 63.3216 82.1522C63.345 82.0471 63.3391 81.9376 63.3046 81.8356C63.2701 81.7336 63.2083 81.643 63.126 81.5737L63.1713 81.687Z" fill="white"/>
<path d="M70.0818 80.69L67.3175 82.82L64.3267 78.9453L67.023 76.8606L67.6121 77.631L65.6862 79.1039L66.2073 79.761L67.3175 78.9226L67.884 79.6704L66.7737 80.5314L67.4988 81.4605L69.5154 79.9196L70.0818 80.69Z" fill="white"/>
</g>
<defs>
<clipPath id="clip0_347_11">
<rect width="82" height="91" fill="white"/>
</clipPath>
</defs>
</svg>
